<svg width="52" height="53" viewBox="0 0 52 53" fill="none" xmlns="http://www.w3.org/2000/svg">
<rect x="0.5" y="1" width="51" height="51" rx="25.5" fill="white"/>
<rect x="0.5" y="1" width="51" height="51" rx="25.5" stroke="#E1E1E1"/>
<path d="M14 14.5V38.5H22.3571V26.4926L29.6295 38.5H38V14.5H29.6295V26.4926L22.3571 14.5H14Z" fill="white"/>
<path d="M35.8055 24.5415H35V24.5H26V28.5H31.6515C30.827 30.8285 28.6115 32.5 26 32.5C22.6865 32.5 20 29.8135 20 26.5C20 23.1865 22.6865 20.5 26 20.5C27.5295 20.5 28.921 21.077 29.9805 22.0195L32.809 19.191C31.023 17.5265 28.634 16.5 26 16.5C20.4775 16.5 16 20.9775 16 26.5C16 32.0225 20.4775 36.5 26 36.5C31.5225 36.5 36 32.0225 36 26.5C36 25.8295 35.931 25.175 35.8055 24.5415Z" fill="#FFC107"/>
<path d="M17.1523 21.8455L20.4378 24.255C21.3268 22.054 23.4798 20.5 25.9993 20.5C27.5288 20.5 28.9203 21.077 29.9798 22.0195L32.8083 19.191C31.0223 17.5265 28.6333 16.5 25.9993 16.5C22.1583 16.5 18.8273 18.6685 17.1523 21.8455Z" fill="#FF3D00"/>
<path d="M26.0002 36.4996C28.5832 36.4996 30.9302 35.5111 32.7047 33.9036L29.6097 31.2846C28.6057 32.0451 27.3577 32.4996 26.0002 32.4996C23.3992 32.4996 21.1907 30.8411 20.3587 28.5266L17.0977 31.0391C18.7527 34.2776 22.1137 36.4996 26.0002 36.4996Z" fill="#4CAF50"/>
<path d="M35.8055 24.5417H35V24.5002H26V28.5002H31.6515C31.2555 29.6187 30.536 30.5832 29.608 31.2857C29.6085 31.2852 29.609 31.2852 29.6095 31.2847L32.7045 33.9037C32.4855 34.1027 36 31.5002 36 26.5002C36 25.8297 35.931 25.1752 35.8055 24.5417Z" fill="#1976D2"/>
</svg>
