<svg width="52" height="53" viewBox="0 0 52 53" fill="none" xmlns="http://www.w3.org/2000/svg">
<rect y="0.5" width="52" height="52" rx="26" fill="#FEE502"/>
<path d="M26 16.5C27.808 16.5 29.4803 16.8809 31.0167 17.6428C32.5532 18.4047 33.7679 19.4408 34.6607 20.7509C35.5536 22.061 36 23.49 36 25.038C36 26.586 35.5536 28.0171 34.6607 29.3313C33.7679 30.6454 32.555 31.6834 31.0223 32.4453C29.4896 33.2072 27.8155 33.5882 26 33.5882C25.4271 33.5882 24.8355 33.5438 24.2254 33.4551C21.5766 35.4465 20.1667 36.4543 19.9955 36.4785C19.9137 36.5108 19.8355 36.5067 19.7612 36.4664C19.7314 36.4422 19.7091 36.41 19.6942 36.3696C19.6793 36.3293 19.6719 36.2931 19.6719 36.2608V36.2125C19.7165 35.898 20.0551 34.5879 20.6875 32.2821C19.2515 31.5081 18.1112 30.4821 17.2667 29.2042C16.4222 27.9264 16 26.5376 16 25.038C16 23.49 16.4464 22.061 17.3393 20.7509C18.2321 19.4408 19.4468 18.4047 20.9833 17.6428C22.5197 16.8809 24.192 16.5 26 16.5Z" fill="black"/>
</svg>
