<svg width="113" height="32" viewBox="0 0 113 32" fill="none" xmlns="http://www.w3.org/2000/svg">
<path d="M24.2846 18.3125C25.1903 17.9817 26.2627 18.1543 27.024 18.7528C29.2063 20.4545 28.0353 24.006 25.26 24.0133H25.2456C24.9049 24.0162 24.5649 23.9545 24.2465 23.8341C23.7009 23.6281 23.2214 23.2538 22.8821 22.7758C22.4731 22.1998 22.2956 21.523 22.3739 20.8209C22.3941 20.6373 22.4092 20.4451 22.3452 20.2681C22.1137 19.6312 21.2274 19.5826 20.8975 20.1491C20.6384 20.5965 20.2463 21.2945 19.9162 21.8819C19.7133 22.2431 19.5338 22.5626 19.4232 22.7562C19.3369 22.9136 19.2478 23.0108 19.1091 23.153C17.3322 24.965 14.2132 23.7181 14.1464 21.1712C14.1313 20.7396 14.2147 20.308 14.3814 19.9134C14.4697 19.7137 14.5923 19.4988 14.6965 19.3161C14.7256 19.2653 14.7532 19.2169 14.7782 19.172C14.9144 18.9412 15.0794 18.6443 15.2577 18.3236C15.4256 18.0215 15.6053 17.6983 15.7838 17.389C16.4408 16.2279 17.3009 14.7012 18.1055 13.273C19.2608 11.2226 20.3016 9.37516 20.4626 9.10365C20.8321 8.59805 21.4632 8.14251 22.0929 8.00033C23.9014 7.50272 25.7862 9.00355 25.715 10.9004C25.7107 11.2805 25.6158 11.7223 25.4598 12.0487C25.3371 12.2675 24.8746 13.0876 24.3285 14.0558C23.6146 15.3217 22.758 16.8406 22.3315 17.5994C22.2108 17.7967 22.0117 18.1449 22.0864 18.4271C22.1504 18.8775 22.7103 19.2192 23.1071 19.0096C23.2236 18.9552 23.3314 18.8725 23.4335 18.7912C23.6843 18.5903 23.9769 18.4205 24.2846 18.3125Z" fill="#5E35F0"/>
<path d="M17.4508 10.7851C17.4637 11.1986 17.3725 11.6454 17.2136 12.0176C17.1298 12.1699 16.764 12.8189 16.2458 13.7365C15.7152 14.6762 15.0255 15.8974 14.3175 17.1555C13.7094 18.2371 13.0253 19.4485 12.3986 20.5586C11.9089 21.4258 11.4542 22.2312 11.0979 22.8643C10.5624 23.5802 9.684 24.0206 8.79267 24.0155H8.77829C6.83893 24.0554 5.3596 21.9626 6.04032 20.1151C6.11761 19.8678 6.26832 19.6039 6.40818 19.3591C6.44392 19.2965 6.47895 19.2352 6.51186 19.1757C6.64275 18.9485 6.80806 18.6535 6.98666 18.3348C7.15529 18.0339 7.33576 17.7119 7.5103 17.4057C8.15113 16.2769 8.9764 14.8099 9.75849 13.4196C10.959 11.2855 12.0578 9.33232 12.2315 9.06087C12.4687 8.74605 12.9122 8.35942 13.3032 8.19113C15.1657 7.28149 17.4307 8.68004 17.4508 10.7851Z" fill="#5E35F0"/>
<path d="M40.4723 24.1902C39.9651 24.1902 39.5989 24.1127 39.3735 23.9577C39.1622 23.8028 39.0283 23.6056 38.972 23.3661C38.9157 23.1125 38.8875 22.8449 38.8875 22.5631V11.0048C38.8875 10.7371 38.9157 10.4906 38.972 10.2652C39.0283 10.0257 39.1692 9.82852 39.3946 9.67357C39.62 9.51861 39.9933 9.44113 40.5145 9.44113C40.8667 9.44113 41.1343 9.46226 41.3175 9.50452C41.5006 9.54678 41.6344 9.61017 41.719 9.6947C41.8035 9.76513 41.895 9.84965 41.9937 9.94826L46.748 16.3719H46.431L51.2065 9.94826C51.3192 9.80739 51.4319 9.70174 51.5446 9.6313C51.6573 9.56087 51.7982 9.51156 51.9672 9.48339C52.1503 9.45522 52.4039 9.44113 52.7279 9.44113C53.235 9.44113 53.6013 9.51861 53.8267 9.67357C54.0521 9.82852 54.193 10.0328 54.2493 10.2863C54.3057 10.5258 54.3338 10.7794 54.3338 11.047V22.6054C54.3338 22.873 54.3057 23.1266 54.2493 23.3661C54.193 23.6056 54.0521 23.8028 53.8267 23.9577C53.6013 24.1127 53.228 24.1902 52.7068 24.1902C52.1997 24.1902 51.8334 24.1127 51.608 23.9577C51.3826 23.8028 51.2417 23.5985 51.1854 23.345C51.129 23.0914 51.1009 22.8308 51.1009 22.5631V15.0196L47.9524 19.4781C47.8961 19.5485 47.8186 19.6471 47.72 19.7739C47.6214 19.8866 47.4805 19.9852 47.2974 20.0697C47.1283 20.1543 46.8959 20.1965 46.6001 20.1965C46.2902 20.1965 46.0437 20.1543 45.8605 20.0697C45.6915 19.9852 45.5577 19.8866 45.459 19.7739C45.3604 19.6612 45.2759 19.5626 45.2055 19.4781L42.0782 15.0407V22.6054C42.0782 22.873 42.05 23.1266 41.9937 23.3661C41.9373 23.6056 41.7964 23.8028 41.571 23.9577C41.3597 24.1127 40.9935 24.1902 40.4723 24.1902ZM62.9646 24.4015C61.9504 24.4015 60.9924 24.2113 60.0909 23.831C59.2034 23.4365 58.4216 22.9012 57.7454 22.225C57.0833 21.5348 56.5551 20.7389 56.1606 19.8373C55.7803 18.9357 55.5901 17.9637 55.5901 16.9213C55.5901 15.8648 55.7732 14.8787 56.1395 13.963C56.5198 13.0333 57.034 12.2163 57.682 11.5119C58.3441 10.8076 59.1118 10.2582 59.9852 9.86374C60.8586 9.4693 61.7954 9.27209 62.7956 9.27209C63.8098 9.27209 64.7607 9.4693 65.6482 9.86374C66.5497 10.2441 67.3316 10.7794 67.9937 11.4697C68.6557 12.1599 69.177 12.9629 69.5573 13.8785C69.9517 14.7942 70.149 15.7873 70.149 16.8579C70.149 17.8863 69.9588 18.8583 69.5784 19.7739C69.2122 20.6755 68.698 21.4784 68.0359 22.1828C67.3738 22.873 66.6061 23.4154 65.7327 23.8098C64.8734 24.2043 63.9507 24.4015 62.9646 24.4015ZM62.859 21.1897C63.4224 21.1897 63.9507 21.077 64.4437 20.8516C64.9368 20.6262 65.3664 20.3233 65.7327 19.943C66.1131 19.5485 66.4018 19.0907 66.5991 18.5695C66.8104 18.0342 66.916 17.4566 66.916 16.8368C66.916 16.2451 66.8104 15.6887 66.5991 15.1675C66.3877 14.6322 66.0919 14.1673 65.7116 13.7729C65.3453 13.3643 64.9157 13.0474 64.4226 12.822C63.9437 12.5966 63.4224 12.4839 62.859 12.4839C62.3096 12.4839 61.7884 12.5966 61.2953 12.822C60.8164 13.0474 60.3867 13.3643 60.0064 13.7729C59.6401 14.1673 59.3443 14.6322 59.1189 15.1675C58.9076 15.6887 58.8019 16.2522 58.8019 16.8579C58.8019 17.4496 58.9076 18.013 59.1189 18.5483C59.3443 19.0696 59.6401 19.5274 60.0064 19.9218C60.3867 20.3163 60.8164 20.6262 61.2953 20.8516C61.7743 21.077 62.2955 21.1897 62.859 21.1897ZM84.0064 21.9503C84.1754 22.3025 84.267 22.6054 84.2811 22.859C84.2952 23.0984 84.2177 23.3168 84.0487 23.514C83.8937 23.6971 83.6331 23.8803 83.2668 24.0634C82.7034 24.331 82.2667 24.4085 81.9567 24.2958C81.6468 24.1972 81.3581 23.8662 81.0904 23.3027L76.9488 14.6392L72.8284 23.3027C72.5467 23.8521 72.2508 24.1761 71.9409 24.2747C71.6451 24.3874 71.2154 24.3099 70.652 24.0423C70.2857 23.8732 70.0181 23.6971 69.849 23.514C69.6941 23.3168 69.6236 23.0914 69.6377 22.8378C69.6518 22.5702 69.7504 22.2603 69.9335 21.9081L75.4908 10.3497C75.6317 10.068 75.836 9.84261 76.1036 9.67357C76.3854 9.50452 76.6741 9.42 76.97 9.42C77.1813 9.42 77.3785 9.46226 77.5616 9.54678C77.7447 9.61722 77.9067 9.72287 78.0476 9.86374C78.2026 10.0046 78.3294 10.1737 78.428 10.3709L84.0064 21.9503ZM73.3989 20.7459L74.709 18.0201H79.2098L80.5199 20.7459H73.3989ZM86.8587 24.1902C86.3515 24.1902 85.9853 24.1127 85.7599 23.9577C85.5345 23.7887 85.3936 23.5774 85.3373 23.3238C85.295 23.0562 85.2739 22.7815 85.2739 22.4997V11.047C85.2739 10.7653 85.295 10.5047 85.3373 10.2652C85.3936 10.0117 85.5345 9.80739 85.7599 9.65243C85.9853 9.48339 86.3586 9.39887 86.8798 9.39887H92.1413C92.9724 9.39887 93.712 9.59609 94.36 9.99052C95.008 10.385 95.5222 10.9132 95.9025 11.5753C96.2829 12.2374 96.466 12.9558 96.4519 13.7306C96.466 14.0405 96.4378 14.3434 96.3674 14.6392C96.2969 14.935 96.1913 15.2238 96.0504 15.5056C95.9236 15.7732 95.7616 16.0197 95.5644 16.2451C95.8602 16.5269 96.1068 16.8509 96.304 17.2171C96.5012 17.5693 96.6491 17.9426 96.7477 18.337C96.8604 18.7315 96.9168 19.133 96.9168 19.5415C96.9027 20.1895 96.7759 20.8023 96.5364 21.3798C96.311 21.9433 95.987 22.4363 95.5644 22.859C95.1418 23.2675 94.6558 23.5915 94.1064 23.831C93.557 24.0704 92.9724 24.1902 92.3526 24.1902H86.8587ZM88.4857 20.9995H92.1413C92.3808 20.9995 92.6202 20.9572 92.8597 20.8727C93.1133 20.7741 93.3175 20.605 93.4725 20.3656C93.6415 20.112 93.7261 19.7598 93.7261 19.309C93.7261 19.0132 93.6909 18.7667 93.6204 18.5695C93.55 18.3723 93.4514 18.2243 93.3246 18.1257C93.1978 18.013 93.0569 17.9356 92.902 17.8933C92.747 17.851 92.585 17.8229 92.416 17.8088C92.2469 17.7947 92.0849 17.7877 91.93 17.7877H91.3172C90.8382 17.7877 90.5002 17.689 90.3029 17.4918C90.1057 17.2805 90.0071 16.9213 90.0071 16.4142C90.0071 15.9211 90.1128 15.576 90.3241 15.3788C90.5495 15.1816 90.9016 15.083 91.3806 15.083H91.9934C92.1342 15.083 92.2822 15.0759 92.4371 15.0618C92.5921 15.0477 92.7259 15.0055 92.8386 14.935C92.9654 14.8646 93.064 14.7519 93.1344 14.597C93.2189 14.4279 93.2612 14.2025 93.2612 13.9208C93.2612 13.4418 93.1415 13.1037 92.902 12.9065C92.6625 12.6952 92.2399 12.5896 91.6342 12.5896H88.4857V20.9995ZM111.596 21.9503C111.765 22.3025 111.856 22.6054 111.87 22.859C111.884 23.0984 111.807 23.3168 111.638 23.514C111.483 23.6971 111.222 23.8803 110.856 24.0634C110.293 24.331 109.856 24.4085 109.546 24.2958C109.236 24.1972 108.947 23.8662 108.68 23.3027L104.538 14.6392L100.418 23.3027C100.136 23.8521 99.8401 24.1761 99.5302 24.2747C99.2343 24.3874 98.8047 24.3099 98.2412 24.0423C97.875 23.8732 97.6073 23.6971 97.4383 23.514C97.2833 23.3168 97.2129 23.0914 97.227 22.8378C97.241 22.5702 97.3397 22.2603 97.5228 21.9081L103.08 10.3497C103.221 10.068 103.425 9.84261 103.693 9.67357C103.975 9.50452 104.263 9.42 104.559 9.42C104.771 9.42 104.968 9.46226 105.151 9.54678C105.334 9.61722 105.496 9.72287 105.637 9.86374C105.792 10.0046 105.919 10.1737 106.017 10.3709L111.596 21.9503ZM100.988 20.7459L102.298 18.0201H106.799L108.109 20.7459H100.988Z" fill="#0B0C0C"/>
</svg>
