<svg width="36" height="36" viewBox="0 0 36 36" fill="none" xmlns="http://www.w3.org/2000/svg">
<rect width="36" height="36" rx="18" fill="#EFF0F2"/>
<path d="M15.5 22.1667C15.5 22.1667 21.3333 23 23.8333 25.5H24.6667C24.8877 25.5 25.0996 25.4122 25.2559 25.2559C25.4122 25.0996 25.5 24.8877 25.5 24.6667V19.6142C25.8581 19.5221 26.1755 19.3135 26.4021 19.0213C26.6287 18.7291 26.7516 18.3698 26.7516 18C26.7516 17.6302 26.6287 17.2709 26.4021 16.9787C26.1755 16.6865 25.8581 16.4779 25.5 16.3858V11.3333C25.5 11.1123 25.4122 10.9004 25.2559 10.7441C25.0996 10.5878 24.8877 10.5 24.6667 10.5H23.8333C21.3333 13 15.5 13.8333 15.5 13.8333H12.1667C11.7246 13.8333 11.3007 14.0089 10.9882 14.3215C10.6756 14.634 10.5 15.058 10.5 15.5V20.5C10.5 20.942 10.6756 21.3659 10.9882 21.6785C11.3007 21.9911 11.7246 22.1667 12.1667 22.1667H13L13.8333 26.3333H15.5V22.1667ZM17.1667 15.2175C17.7358 15.0958 18.4392 14.9258 19.2 14.7033C20.5983 14.2917 22.375 13.6442 23.8333 12.645V23.3542C22.375 22.3558 20.5975 21.7083 19.2 21.2967C18.5288 21.1005 17.8505 20.9293 17.1667 20.7833V15.2175ZM12.1667 15.5H15.5V20.5H12.1667V15.5Z" fill="#AFB0B2"/>
</svg>
