<svg width="1059" height="557" viewBox="0 0 1059 557" fill="none" xmlns="http://www.w3.org/2000/svg">
<circle cx="505" cy="521" r="505" fill="#9084FF" fill-opacity="0.15"/>
<circle cx="505" cy="534" r="425" fill="#9084FF" fill-opacity="0.15"/>
<circle cx="505" cy="521" r="319" fill="#9084FF" fill-opacity="0.15"/>
<path d="M516.739 409.656C517.73 407.335 518.3 404.548 518.219 401.97C518.093 388.84 503.966 380.117 492.35 385.79C489.911 386.84 487.145 389.252 485.665 391.215C483.876 394.011 466.35 425.415 456.218 443.264C453.976 447.195 451.578 451.548 449.991 454.303C448.982 456.126 447.655 458.226 447.049 460.162C442.804 471.686 452.03 484.738 464.127 484.49H464.216C469.776 484.521 475.255 481.775 478.595 477.309C483.661 468.306 491.919 453.719 498.676 441.703C507.405 426.193 515.686 411.579 516.744 409.656H516.739Z" fill="#7741FF"/>
<path d="M577.928 451.665C573.18 447.933 566.491 446.856 560.841 448.919C558.923 449.593 557.098 450.652 555.533 451.905C554.896 452.412 554.224 452.928 553.498 453.267C551.023 454.575 547.53 452.444 547.131 449.634C546.665 447.874 547.907 445.702 548.66 444.472C553.354 436.12 566.405 413 568.172 409.851C569.145 407.815 569.737 405.06 569.763 402.689C570.207 390.858 558.452 381.497 547.172 384.601C543.244 385.487 539.308 388.329 537.003 391.482C535.3 394.355 517.801 425.519 507.821 443.16C505.525 447.136 503.198 451.484 501.548 454.28C500.831 455.565 499.778 457.312 499.074 458.904C498.033 461.366 497.513 464.058 497.608 466.75C498.025 482.635 517.478 490.412 528.561 479.11C529.426 478.223 529.982 477.617 530.52 476.635C532.332 473.464 537.106 464.881 539.716 460.375C541.774 456.841 547.302 457.144 548.745 461.117C549.521 463.429 548.387 465.827 548.848 468.211C549.79 477.359 557.784 484.567 566.831 484.481H566.921C584.231 484.435 591.539 462.28 577.928 451.665Z" fill="#7741FF"/>
<rect x="69" y="303" width="155" height="54" rx="16" fill="#7F76E5"/>
<path d="M109.853 322.312C109.853 324.533 109.306 326.44 108.212 328.035C107.118 329.624 105.393 330.9 103.036 331.863L102.138 330.477C104.436 329.591 106.054 328.387 106.991 326.863L102.431 327.352L102.157 325.848L107.636 325.516C107.812 325.008 107.935 324.441 108.007 323.816H102.958V322.312H109.853ZM116.962 331.473H115.204V327.02H113.095V331.316H111.337V321.492H113.095V325.477H115.204V321.18H116.962V331.473ZM116.962 338.445H105.263V332.215H116.962V338.445ZM107.099 336.941H115.146V333.699H107.099V336.941ZM134.242 338.66H132.465V321.16H134.242V338.66ZM130.785 337.762H129.027V329.383H126.84V327.723H129.027V321.551H130.785V337.762ZM127.309 324.832H125.961V332.654C126.449 332.615 127.016 332.553 127.66 332.469L127.797 333.816C125.681 334.233 122.79 334.441 119.125 334.441L118.91 332.879L120.629 332.869V324.832H119.281V323.309H127.309V324.832ZM122.309 332.84C123.181 332.814 123.825 332.788 124.242 332.762V324.832H122.309V332.84ZM150.682 333.895H148.827V321.18H150.682V333.895ZM151.21 338.289H139.237V332.605H141.112V336.785H151.21V338.289ZM141.19 322.352C142.062 322.352 142.85 322.537 143.553 322.908C144.263 323.279 144.82 323.794 145.223 324.451C145.633 325.109 145.839 325.854 145.839 326.688C145.839 327.534 145.633 328.289 145.223 328.953C144.82 329.611 144.263 330.125 143.553 330.496C142.85 330.861 142.062 331.043 141.19 331.043C140.318 331.043 139.527 330.861 138.817 330.496C138.107 330.125 137.548 329.607 137.137 328.943C136.727 328.279 136.522 327.527 136.522 326.688C136.522 325.854 136.727 325.109 137.137 324.451C137.548 323.794 138.107 323.279 138.817 322.908C139.527 322.537 140.318 322.352 141.19 322.352ZM141.19 323.973C140.65 323.973 140.161 324.09 139.725 324.324C139.296 324.552 138.957 324.871 138.71 325.281C138.462 325.691 138.339 326.16 138.339 326.688C138.339 327.228 138.459 327.706 138.7 328.123C138.947 328.533 139.286 328.852 139.715 329.08C140.152 329.308 140.643 329.422 141.19 329.422C141.724 329.422 142.206 329.308 142.635 329.08C143.065 328.852 143.404 328.53 143.651 328.113C143.898 327.697 144.022 327.221 144.022 326.688C144.022 326.167 143.898 325.701 143.651 325.291C143.404 324.874 143.062 324.552 142.626 324.324C142.196 324.09 141.717 323.973 141.19 323.973ZM166.004 332.059C167.202 332.059 168.237 332.189 169.109 332.449C169.982 332.71 170.649 333.087 171.111 333.582C171.574 334.07 171.805 334.656 171.805 335.34C171.805 336.03 171.574 336.622 171.111 337.117C170.649 337.612 169.982 337.99 169.109 338.25C168.237 338.517 167.202 338.654 166.004 338.66C164.787 338.654 163.738 338.517 162.859 338.25C161.981 337.99 161.303 337.612 160.828 337.117C160.359 336.622 160.125 336.03 160.125 335.34C160.125 334.656 160.359 334.07 160.828 333.582C161.303 333.087 161.981 332.71 162.859 332.449C163.745 332.189 164.793 332.059 166.004 332.059ZM166.004 333.523C164.728 333.523 163.735 333.683 163.025 334.002C162.322 334.314 161.974 334.76 161.981 335.34C161.974 335.926 162.322 336.378 163.025 336.697C163.735 337.016 164.728 337.176 166.004 337.176C167.267 337.176 168.247 337.016 168.943 336.697C169.64 336.378 169.988 335.926 169.988 335.34C169.988 334.754 169.64 334.305 168.943 333.992C168.247 333.68 167.267 333.523 166.004 333.523ZM171.649 325.438H174.188V327.02H171.649V331.609H169.793V321.16H171.649V325.438ZM160.399 324.773H164.988V322.254H166.824V330.379H158.582V322.254H160.399V324.773ZM164.988 328.895V326.238H160.399V328.895H164.988ZM181.331 323.68C181.324 324.487 181.494 325.258 181.839 325.994C182.19 326.723 182.695 327.368 183.352 327.928C184.01 328.488 184.781 328.914 185.667 329.207L184.729 330.672C183.727 330.32 182.851 329.803 182.102 329.119C181.36 328.429 180.79 327.625 180.393 326.707C179.996 327.703 179.42 328.572 178.665 329.314C177.916 330.05 177.027 330.6 175.999 330.965L175.061 329.52C175.953 329.201 176.728 328.742 177.386 328.143C178.05 327.544 178.557 326.86 178.909 326.092C179.261 325.317 179.436 324.513 179.436 323.68V322H181.331V323.68ZM189.475 338.66H187.62V334.012H177.62V332.508H189.475V338.66ZM189.475 331.668H187.62V321.16H189.475V331.668Z" fill="#212135"/>
<rect x="727" y="189" width="138" height="54" rx="16" fill="#7F76E5"/>
<path d="M769.057 210.227H762.69V213.605H768.706V215.09H762.69V219.016C764.207 219.009 765.548 218.967 766.713 218.889C767.879 218.811 769.077 218.671 770.307 218.469L770.483 219.973C769.207 220.188 767.944 220.334 766.694 220.412C765.444 220.484 763.953 220.52 762.221 220.52H760.815V208.703H769.057V210.227ZM773.706 214.055H776.518V215.617H773.706V224.66H771.85V207.16H773.706V214.055ZM791.63 218.898H789.775V207.18H791.63V218.898ZM786.435 208.508C786.428 210.018 786.096 211.392 785.439 212.629C784.788 213.859 783.844 214.924 782.607 215.822C781.37 216.721 779.879 217.427 778.134 217.941L777.411 216.457C779.508 215.852 781.165 214.995 782.382 213.889C783.6 212.775 784.296 211.483 784.472 210.012H778.329V208.508H786.435ZM786.845 218.352C786.838 219.12 787.083 219.836 787.577 220.5C788.072 221.158 788.756 221.717 789.628 222.18C790.507 222.635 791.5 222.954 792.607 223.137L791.884 224.602C790.504 224.361 789.283 223.911 788.222 223.254C787.161 222.603 786.376 221.799 785.868 220.842C785.348 221.799 784.557 222.603 783.495 223.254C782.434 223.911 781.213 224.361 779.833 224.602L779.111 223.137C780.204 222.961 781.191 222.645 782.07 222.189C782.955 221.727 783.648 221.164 784.15 220.5C784.657 219.836 784.911 219.12 784.911 218.352V217.668H786.845V218.352ZM813.456 216.164H811.6V211.672H807.909V210.168H811.6V207.16H813.456V216.164ZM813.456 221.34H803.866V222.961H814.061V224.445H802.05V219.934H811.62V218.449H802.01V216.984H813.456V221.34ZM805.018 209.25C805.018 209.992 805.188 210.705 805.526 211.389C805.871 212.066 806.363 212.668 807.001 213.195C807.639 213.716 808.391 214.113 809.257 214.387L808.28 215.832C807.329 215.5 806.496 215.018 805.78 214.387C805.07 213.755 804.52 213.02 804.13 212.18C803.745 213.13 803.182 213.957 802.44 214.66C801.698 215.363 800.819 215.891 799.803 216.242L798.807 214.758C799.706 214.471 800.481 214.051 801.132 213.498C801.789 212.945 802.294 212.303 802.645 211.574C802.997 210.845 803.176 210.07 803.182 209.25V207.727H805.018V209.25ZM830.521 217.57H828.665V213.137H825.404V211.613H828.665V207.16H830.521V217.57ZM824.662 218.059C825.879 218.059 826.93 218.189 827.816 218.449C828.708 218.71 829.391 219.087 829.867 219.582C830.342 220.077 830.58 220.669 830.58 221.359C830.58 222.049 830.342 222.639 829.867 223.127C829.391 223.622 828.711 223.999 827.826 224.26C826.94 224.52 825.886 224.654 824.662 224.66C823.438 224.654 822.38 224.52 821.488 224.26C820.602 223.999 819.922 223.622 819.447 223.127C818.971 222.639 818.737 222.049 818.744 221.359C818.737 220.669 818.971 220.077 819.447 219.582C819.922 219.087 820.602 218.71 821.488 218.449C822.38 218.189 823.438 218.059 824.662 218.059ZM824.662 219.504C823.372 219.504 822.37 219.667 821.654 219.992C820.938 220.311 820.58 220.767 820.58 221.359C820.58 221.75 820.742 222.085 821.068 222.365C821.393 222.639 821.862 222.847 822.474 222.99C823.086 223.133 823.815 223.202 824.662 223.195C825.508 223.202 826.237 223.133 826.849 222.99C827.461 222.847 827.93 222.639 828.255 222.365C828.581 222.085 828.744 221.75 828.744 221.359C828.744 220.767 828.386 220.311 827.669 219.992C826.953 219.667 825.951 219.504 824.662 219.504ZM822.201 210.246C822.201 210.988 822.37 211.708 822.708 212.404C823.047 213.101 823.535 213.723 824.173 214.27C824.811 214.81 825.56 215.227 826.419 215.52L825.462 216.984C824.499 216.646 823.659 216.148 822.943 215.49C822.233 214.826 821.683 214.055 821.292 213.176C820.908 214.172 820.339 215.044 819.583 215.793C818.828 216.535 817.936 217.095 816.908 217.473L815.931 215.988C816.817 215.682 817.588 215.236 818.246 214.65C818.91 214.058 819.417 213.381 819.769 212.619C820.127 211.857 820.306 211.073 820.306 210.266V209.875H816.517V208.371H825.951V209.875H822.201V210.246Z" fill="#212135"/>
<rect x="913" y="345" width="138" height="54" rx="16" fill="#4F4A8A"/>
<path d="M962.03 373.375H946.073V371.871H950.389V369.684H952.225V371.871H955.877V369.684H957.713V371.871H962.03V373.375ZM954.979 374.859C954.979 375.562 955.226 376.214 955.721 376.812C956.223 377.411 956.916 377.913 957.801 378.316C958.687 378.72 959.693 378.993 960.819 379.137L960.135 380.582C958.729 380.367 957.489 379.967 956.415 379.381C955.34 378.795 954.543 378.062 954.022 377.184C953.501 378.062 952.704 378.795 951.629 379.381C950.555 379.967 949.315 380.367 947.909 380.582L947.225 379.137C948.351 378.993 949.357 378.72 950.243 378.316C951.128 377.913 951.822 377.411 952.323 376.812C952.824 376.214 953.078 375.562 953.085 374.859V374.41H954.979V374.859ZM954.979 364.078C954.979 364.781 955.252 365.445 955.799 366.07C956.346 366.695 957.088 367.219 958.026 367.643C958.963 368.066 959.992 368.342 961.112 368.473L960.428 369.898C958.996 369.697 957.707 369.286 956.561 368.668C955.422 368.043 954.575 367.271 954.022 366.354C953.475 367.271 952.632 368.043 951.493 368.668C950.36 369.286 949.081 369.697 947.655 369.898L946.952 368.473C948.078 368.329 949.11 368.046 950.047 367.623C950.985 367.193 951.727 366.669 952.274 366.051C952.821 365.432 953.098 364.775 953.104 364.078V363.336H954.979V364.078ZM979.095 373.355H963.138V371.871H970.169V370.055H964.681V368.551H967.161V365.211H964.603V363.707H977.591V365.211H975.052V368.551H977.513V370.055H972.025V371.871H979.095V373.355ZM977.142 380.445H965.052V374.879H977.142V380.445ZM966.888 378.941H975.345V376.324H966.888V378.941ZM973.197 368.551V365.211H968.997V368.551H973.197ZM989.671 364.176C990.406 364.176 991.077 364.303 991.682 364.557C992.294 364.804 992.809 365.159 993.225 365.621H997.6V363.16H999.456V373.492H997.6V371.129H993.206C992.796 371.585 992.288 371.939 991.682 372.193C991.083 372.441 990.426 372.561 989.71 372.555C988.844 372.561 988.059 372.385 987.356 372.027C986.66 371.669 986.113 371.171 985.716 370.533C985.318 369.895 985.12 369.176 985.12 368.375C985.12 367.574 985.315 366.855 985.706 366.217C986.103 365.579 986.647 365.081 987.337 364.723C988.033 364.358 988.811 364.176 989.671 364.176ZM989.71 365.777C989.169 365.771 988.684 365.875 988.255 366.09C987.831 366.305 987.499 366.611 987.259 367.008C987.018 367.405 986.897 367.861 986.897 368.375C986.897 368.876 987.018 369.326 987.259 369.723C987.499 370.12 987.831 370.429 988.255 370.65C988.684 370.872 989.169 370.979 989.71 370.973C990.237 370.979 990.712 370.872 991.135 370.65C991.559 370.429 991.887 370.12 992.122 369.723C992.363 369.326 992.483 368.876 992.483 368.375C992.483 367.861 992.363 367.408 992.122 367.018C991.887 366.62 991.559 366.314 991.135 366.1C990.712 365.878 990.237 365.771 989.71 365.777ZM993.596 373.883C994.807 373.883 995.856 374.016 996.741 374.283C997.633 374.55 998.316 374.938 998.792 375.445C999.273 375.947 999.514 376.552 999.514 377.262C999.514 377.965 999.273 378.57 998.792 379.078C998.316 379.586 997.633 379.97 996.741 380.23C995.849 380.497 994.801 380.628 993.596 380.621C992.385 380.628 991.334 380.497 990.442 380.23C989.55 379.97 988.863 379.586 988.382 379.078C987.906 378.57 987.672 377.965 987.678 377.262C987.672 376.552 987.906 375.947 988.382 375.445C988.863 374.938 989.547 374.55 990.432 374.283C991.324 374.016 992.379 373.883 993.596 373.883ZM993.596 375.309C992.307 375.309 991.298 375.481 990.569 375.826C989.846 376.165 989.488 376.643 989.495 377.262C989.488 377.861 989.846 378.326 990.569 378.658C991.298 378.99 992.307 379.156 993.596 379.156C994.892 379.156 995.898 378.993 996.614 378.668C997.337 378.336 997.698 377.867 997.698 377.262C997.698 376.637 997.337 376.155 996.614 375.816C995.898 375.478 994.892 375.309 993.596 375.309ZM994.065 367.105C994.195 367.509 994.26 367.932 994.26 368.375C994.26 368.792 994.199 369.202 994.075 369.605H997.6V367.105H994.065ZM1007.97 365.953C1007.97 366.721 1008.14 367.457 1008.47 368.16C1008.82 368.863 1009.31 369.485 1009.94 370.025C1010.58 370.559 1011.33 370.966 1012.18 371.246L1011.19 372.711C1010.24 372.379 1009.42 371.887 1008.71 371.236C1008.01 370.579 1007.46 369.814 1007.08 368.941C1006.69 369.938 1006.13 370.803 1005.4 371.539C1004.67 372.268 1003.8 372.822 1002.79 373.199L1001.79 371.715C1002.69 371.396 1003.46 370.94 1004.11 370.348C1004.76 369.749 1005.26 369.059 1005.6 368.277C1005.95 367.496 1006.12 366.669 1006.13 365.797V364.078H1007.97V365.953ZM1015.68 367.555H1018.22V369.117H1015.68V373.727H1013.83V363.16H1015.68V367.555ZM1010.04 374.137C1011.23 374.137 1012.26 374.267 1013.13 374.527C1014 374.781 1014.67 375.152 1015.13 375.641C1015.6 376.122 1015.84 376.702 1015.84 377.379C1015.84 378.062 1015.6 378.648 1015.13 379.137C1014.67 379.625 1014 379.996 1013.13 380.25C1012.26 380.504 1011.23 380.628 1010.04 380.621C1008.83 380.628 1007.79 380.504 1006.9 380.25C1006.02 379.996 1005.34 379.625 1004.86 379.137C1004.39 378.648 1004.16 378.062 1004.16 377.379C1004.16 376.702 1004.39 376.122 1004.86 375.641C1005.34 375.152 1006.02 374.781 1006.9 374.527C1007.79 374.267 1008.83 374.137 1010.04 374.137ZM1010.04 375.602C1009.2 375.602 1008.47 375.673 1007.87 375.816C1007.26 375.953 1006.8 376.155 1006.48 376.422C1006.16 376.689 1006.01 377.008 1006.01 377.379C1006.01 377.952 1006.35 378.391 1007.06 378.697C1007.76 379.003 1008.75 379.163 1010.04 379.176C1011.31 379.163 1012.29 379.003 1012.98 378.697C1013.67 378.391 1014.02 377.952 1014.02 377.379C1014.02 376.819 1013.67 376.383 1012.97 376.07C1012.27 375.758 1011.29 375.602 1010.04 375.602Z" fill="#212135"/>
<rect x="609" y="16" width="150" height="54" rx="16" fill="#4F4A8A"/>
<path d="M642.519 48.5742L649.941 37.7148H642.441V35.8594H652.577V37.2852L645.155 48.1445H652.636V50H642.519V48.5742ZM659.389 38.9453C659.389 39.8958 659.522 40.8366 659.789 41.7676C660.056 42.6921 660.453 43.5384 660.98 44.3066C661.508 45.0749 662.149 45.6901 662.904 46.1523L661.869 47.5781C661.075 47.1029 660.394 46.4551 659.828 45.6348C659.262 44.8079 658.825 43.8704 658.519 42.8223C658.187 43.9616 657.719 44.9805 657.113 45.8789C656.514 46.7708 655.801 47.4674 654.975 47.9688L653.822 46.582C654.623 46.1003 655.307 45.4622 655.873 44.668C656.439 43.8672 656.866 42.9818 657.152 42.0117C657.445 41.0352 657.592 40.0391 657.592 39.0234V35.7617H659.389V38.9453ZM669.115 51.6602H667.338V34.1602H669.115V51.6602ZM665.482 50.8008H663.725V41.8555H661.01V40.3125H663.725V34.4922H665.482V50.8008ZM686.141 51.6602H684.364V42.6172H682.098V50.7617H680.399V34.5117H682.098V41.0938H684.364V34.1602H686.141V51.6602ZM678.27 37.7734H673.563V45.8789C674.709 45.8659 675.712 45.8268 676.571 45.7617C677.437 45.6966 678.316 45.5794 679.208 45.4102L679.344 46.9336C678.361 47.1354 677.391 47.2721 676.434 47.3438C675.477 47.4089 674.292 47.4479 672.88 47.4609H671.708V36.2695H678.27V37.7734ZM708.807 43.7695H701.736V45.4492C703.357 45.5404 704.614 45.8529 705.506 46.3867C706.404 46.9141 706.854 47.6302 706.854 48.5352C706.854 49.1927 706.613 49.7526 706.131 50.2148C705.649 50.6836 704.956 51.0352 704.051 51.2695C703.152 51.5104 702.075 51.6276 700.818 51.6211C699.549 51.6276 698.458 51.5104 697.547 51.2695C696.642 51.0352 695.949 50.6836 695.467 50.2148C694.985 49.7526 694.744 49.1927 694.744 48.5352C694.744 47.6302 695.193 46.9141 696.092 46.3867C696.99 45.8529 698.26 45.5404 699.9 45.4492V43.7695H692.85V42.2656H708.807V43.7695ZM700.818 46.8555C699.477 46.8555 698.442 47.002 697.713 47.2949C696.984 47.5879 696.619 48.0013 696.619 48.5352C696.619 49.0625 696.987 49.4727 697.723 49.7656C698.458 50.0586 699.49 50.2018 700.818 50.1953C701.691 50.2018 702.44 50.14 703.065 50.0098C703.696 49.8796 704.175 49.6908 704.5 49.4434C704.832 49.1895 704.998 48.8867 704.998 48.5352C704.998 48.0013 704.63 47.5879 703.895 47.2949C703.165 47.002 702.14 46.8555 700.818 46.8555ZM707.381 36.4453H702.068C702.153 36.9987 702.462 37.5195 702.996 38.0078C703.537 38.4961 704.24 38.9062 705.106 39.2383C705.978 39.5638 706.938 39.7786 707.986 39.8828L707.322 41.3477C706.313 41.2305 705.372 41.0156 704.5 40.7031C703.634 40.3841 702.882 39.9837 702.244 39.502C701.613 39.0202 701.141 38.4733 700.828 37.8613C700.509 38.4733 700.031 39.0202 699.393 39.502C698.761 39.9837 698.012 40.3841 697.147 40.7031C696.281 41.0156 695.343 41.2305 694.334 41.3477L693.69 39.8828C694.725 39.7786 695.672 39.5638 696.531 39.2383C697.397 38.9062 698.097 38.4961 698.631 38.0078C699.171 37.5195 699.484 36.9987 699.568 36.4453H694.315V34.9609H707.381V36.4453ZM724.427 44.082H722.571V34.1797H724.427V44.082ZM724.427 51.4453H712.923V45.0195H724.427V51.4453ZM714.759 49.9414H722.61V46.5039H714.759V49.9414ZM716.282 36.543C716.276 37.3242 716.448 38.0729 716.8 38.7891C717.158 39.4987 717.662 40.127 718.313 40.6738C718.971 41.2142 719.739 41.6341 720.618 41.9336L719.7 43.3594C718.691 43.0273 717.812 42.5293 717.063 41.8652C716.321 41.1947 715.748 40.4069 715.345 39.502C714.947 40.472 714.368 41.3216 713.606 42.0508C712.845 42.7799 711.946 43.3268 710.911 43.6914L709.993 42.2266C710.885 41.9271 711.663 41.4876 712.327 40.9082C712.991 40.3223 713.499 39.6517 713.85 38.8965C714.208 38.1413 714.387 37.3568 714.387 36.543V34.8438H716.282V36.543Z" fill="#212135"/>
<rect x="138" y="70" width="172" height="54" rx="16" fill="#4F4A8A"/>
<path d="M179.933 89.9375C179.927 91.7865 179.686 93.4824 179.211 95.0254C178.736 96.5618 177.915 97.9974 176.75 99.332C175.591 100.66 174.015 101.832 172.023 102.848L170.988 101.441C172.492 100.667 173.736 99.8105 174.719 98.873C175.702 97.9355 176.463 96.9004 177.004 95.7676L171.34 96.3047L171.047 94.7031L177.58 94.293C177.847 93.4076 178.016 92.457 178.088 91.4414H171.945V89.9375H179.933ZM185.578 105.66H183.742V96.6172H179.894V95.0938H183.742V88.1602H185.578V105.66ZM204.069 99.6836H200.143V105.758H198.288V99.6836H193.893V105.758H192.038V99.6836H188.053V98.1602H204.069V99.6836ZM202.057 95.9727H190.065V89.0781H202.057V95.9727ZM191.881 94.4883H200.202V90.5625H191.881V94.4883ZM219.669 105.66H217.814V88.1602H219.669V105.66ZM208.048 99.6055C210.913 99.5859 213.595 99.319 216.095 98.8047L216.349 100.367C214.865 100.667 213.413 100.882 211.993 101.012C210.574 101.142 209.135 101.207 207.677 101.207H206.212V89.8594H208.048V99.6055ZM231.93 91.2266H225.113V94.6055H231.266V96.0898H225.113V100.016C226.702 100.009 228.095 99.9668 229.293 99.8887C230.491 99.8105 231.721 99.6706 232.984 99.4688L233.18 100.973C231.865 101.188 230.566 101.334 229.283 101.412C228.007 101.484 226.48 101.52 224.703 101.52H223.277V89.7031H231.93V91.2266ZM236.754 105.66H234.879V88.1602H236.754V105.66ZM257.701 93.375H260.201V94.8984H257.701V99.957H255.845V88.1797H257.701V93.375ZM243.814 98.0039C245.767 98.0039 247.29 97.9876 248.384 97.9551V96.7832C247.375 96.6725 246.581 96.3926 246.001 95.9434C245.422 95.4941 245.136 94.918 245.142 94.2148C245.136 93.6875 245.302 93.2285 245.64 92.8379C245.985 92.4473 246.473 92.1478 247.105 91.9395C247.736 91.7311 248.469 91.6302 249.302 91.6367C250.129 91.6302 250.855 91.7311 251.48 91.9395C252.111 92.1478 252.6 92.4473 252.945 92.8379C253.29 93.2285 253.462 93.6875 253.462 94.2148C253.462 94.9115 253.173 95.4876 252.593 95.9434C252.02 96.3926 251.236 96.6725 250.24 96.7832V97.8867C251.984 97.8021 253.521 97.6654 254.849 97.4766L255.005 98.8047C253.345 99.0977 251.636 99.2865 249.878 99.3711C248.127 99.4492 246.171 99.4883 244.009 99.4883L243.814 98.0039ZM257.701 105.66H255.845V102.223H246.001V100.777H257.701V105.66ZM254.361 91.0508H244.263V89.6641H248.384V88.0234H250.24V89.6641H254.361V91.0508ZM249.302 92.9062C248.547 92.8932 247.958 93.0039 247.535 93.2383C247.111 93.4727 246.9 93.7982 246.9 94.2148C246.9 94.625 247.111 94.9538 247.535 95.2012C247.964 95.4421 248.553 95.5625 249.302 95.5625C250.038 95.5625 250.617 95.4421 251.04 95.2012C251.47 94.9538 251.685 94.625 251.685 94.2148C251.685 93.7982 251.473 93.4727 251.05 93.2383C250.627 93.0039 250.044 92.8932 249.302 92.9062ZM267.07 91.3633C267.07 92.1445 267.243 92.8965 267.588 93.6191C267.94 94.3418 268.438 94.9831 269.082 95.543C269.733 96.0964 270.495 96.5195 271.367 96.8125L270.41 98.2773C269.44 97.9323 268.597 97.4277 267.881 96.7637C267.165 96.0996 266.608 95.3216 266.211 94.4297C265.827 95.4193 265.264 96.2819 264.522 97.0176C263.786 97.7533 262.91 98.3099 261.895 98.6875L260.86 97.2227C261.771 96.9102 262.555 96.4577 263.213 95.8652C263.871 95.2663 264.372 94.5762 264.717 93.7949C265.062 93.0072 265.235 92.1771 265.235 91.3047V89.2344H267.07V91.3633ZM274.746 93.4141H277.285V94.9961H274.746V101.051H272.891V88.1406H274.746V93.4141ZM275.508 105.289H263.672V99.8008H265.567V103.785H275.508V105.289Z" fill="#212135"/>
</svg>
