<svg width="194" height="54" viewBox="0 0 194 54" fill="none" xmlns="http://www.w3.org/2000/svg">
<rect width="194" height="54" rx="16" fill="#7F76E5"/>
<path d="M41.6984 20.1328V21.5977H32.8507V20.1328H36.3859V18.2578H38.2218V20.1328H41.6984ZM37.2843 22.3594C39.5109 22.3789 41.0734 23.6289 41.0734 25.5039C41.0734 27.3398 39.5109 28.5898 37.2843 28.5898C35.0968 28.5898 33.5343 27.3398 33.5343 25.5039C33.5343 23.6289 35.0968 22.3789 37.2843 22.3594ZM37.2843 23.7656C36.0538 23.7656 35.1945 24.4297 35.1945 25.5039C35.1945 26.5391 36.0538 27.2031 37.2843 27.2031C38.5343 27.2031 39.3937 26.5391 39.3937 25.5039C39.3937 24.4297 38.5343 23.7656 37.2843 23.7656ZM47.8702 18.1797V29.0781H46.1124V24.5078H44.1398V28.9609H42.382V18.4531H44.1398V22.9844H46.1124V18.1797H47.8702ZM47.8702 30.0352V35.6602H46.0343V31.5195H35.9757V30.0352H47.8702ZM64.5252 18.1797V28.082H62.6698V18.1797H64.5252ZM64.5252 29.0195V35.4453H53.0213V29.0195H64.5252ZM54.8573 30.5039V33.9414H62.7088V30.5039H54.8573ZM56.3807 20.543C56.3612 22.9062 58.0604 25.0352 60.7166 25.9336L59.7987 27.3594C57.7674 26.6855 56.244 25.2988 55.4432 23.4922C54.662 25.416 53.1092 26.9492 51.0096 27.6914L50.0916 26.2266C52.826 25.3086 54.4862 22.9844 54.4862 20.543V18.8438H56.3807V20.543ZM69.0709 29.1953C68.3091 29.1953 67.6646 28.5703 67.6841 27.8086C67.6646 27.0469 68.3091 26.4219 69.0709 26.4219C69.813 26.4219 70.4576 27.0469 70.4576 27.8086C70.4576 28.5703 69.813 29.1953 69.0709 29.1953ZM88.0891 28.707V30.2305H81.0188V35.6797H79.1829V30.2305H72.1321V28.707H88.0891ZM86.5657 20.2695V21.7734H81.0384C81.1458 23.707 83.7825 25.5918 87.1126 26.0117L86.4485 27.4961C83.636 27.1055 81.2434 25.7871 80.1204 24C78.9778 25.8066 76.5657 27.1055 73.7532 27.4961L73.0696 26.0117C76.3997 25.5918 79.0559 23.7461 79.1829 21.7734H73.636V20.2695H79.1829V18.1602H81.0188V20.2695H86.5657ZM95.3301 22.3203C95.3301 24.5273 96.9707 26.5586 99.666 27.3984L98.7676 28.8633C96.7559 28.2285 95.2324 26.9004 94.4512 25.1914C93.6699 27.0273 92.1562 28.4531 90.0957 29.1367L89.1973 27.6914C91.873 26.832 93.4941 24.6836 93.4941 22.3203V21.9102H89.6855V20.4062H93.4941V18.2773H95.3496V20.4062H99.1387V21.9102H95.3301V22.3203ZM103.787 18.1797V31.207H101.932V24.9766H98.5332V23.4727H101.932V18.1797H103.787ZM104.256 33.7852V35.2891H92.4199V30.0547H94.2754V33.7852H104.256ZM120.359 19.9375C120.359 25.0938 118.64 29.7422 112.214 32.8672L111.218 31.4219C114.353 29.8984 116.306 28.0137 117.41 25.7773L111.57 26.3242L111.316 24.7031L117.996 24.2734C118.269 23.3848 118.445 22.4375 118.523 21.4414H112.195V19.9375H120.359ZM125.476 18.1602V35.6602H123.601V18.1602H125.476ZM142.619 18.1797V35.6602H140.744V31.4805H136.877V30.0742H140.744V18.1797H142.619ZM127.912 27.2812C131.233 27.2617 135.647 27.2422 139.475 26.7148L139.572 28.082C137.912 28.375 136.184 28.5508 134.494 28.6484V35.1133H132.639V28.7461C131.037 28.8145 129.514 28.8242 128.166 28.8242L127.912 27.2812ZM133.674 18.9805C136.252 18.9805 138.108 20.4062 138.108 22.4766C138.108 24.5859 136.252 25.9531 133.674 25.9531C131.037 25.9531 129.201 24.5859 129.201 22.4766C129.201 20.4062 131.037 18.9805 133.674 18.9805ZM133.674 20.4062C132.053 20.4062 130.94 21.2461 130.959 22.4766C130.94 23.7266 132.053 24.5273 133.674 24.5273C135.236 24.5273 136.35 23.7266 136.35 22.4766C136.35 21.2461 135.236 20.4062 133.674 20.4062ZM159.235 26.4609V27.9844H147.048V19.7227H159.079V21.2461H148.884V26.4609H159.235ZM161.071 31.8125V33.3555H145.056V31.8125H161.071Z" fill="#212135"/>
</svg>
