<svg width="1059" height="557" viewBox="0 0 1059 557" fill="none" xmlns="http://www.w3.org/2000/svg">
<circle cx="505" cy="521" r="505" fill="#9084FF" fill-opacity="0.15"/>
<circle cx="505" cy="534" r="425" fill="#9084FF" fill-opacity="0.15"/>
<circle cx="505" cy="521" r="319" fill="#9084FF" fill-opacity="0.15"/>
<path d="M516.74 409.656C517.731 407.335 518.3 404.548 518.219 401.969C518.094 388.84 503.966 380.117 492.35 385.79C489.911 386.84 487.145 389.251 485.665 391.215C483.876 394.011 466.351 425.415 456.218 443.263C453.977 447.195 451.578 451.548 449.991 454.303C448.982 456.126 447.655 458.226 447.05 460.162C442.804 471.686 452.031 484.738 464.127 484.49H464.217C469.776 484.521 475.255 481.775 478.595 477.309C483.661 468.306 491.92 453.719 498.676 441.703C507.405 426.193 515.686 411.579 516.744 409.656H516.74Z" fill="#7741FF"/>
<path d="M577.928 451.665C573.18 447.933 566.491 446.856 560.841 448.919C558.923 449.593 557.098 450.652 555.533 451.905C554.896 452.412 554.224 452.928 553.498 453.267C551.023 454.575 547.53 452.444 547.131 449.634C546.665 447.874 547.907 445.702 548.66 444.472C553.354 436.12 566.405 413 568.172 409.851C569.145 407.815 569.737 405.06 569.763 402.689C570.207 390.858 558.452 381.497 547.172 384.601C543.244 385.487 539.308 388.329 537.003 391.482C535.3 394.355 517.801 425.519 507.821 443.16C505.525 447.136 503.198 451.484 501.548 454.28C500.831 455.565 499.778 457.312 499.074 458.904C498.033 461.366 497.513 464.058 497.608 466.75C498.025 482.635 517.478 490.412 528.561 479.11C529.426 478.223 529.982 477.617 530.52 476.635C532.332 473.464 537.106 464.881 539.716 460.375C541.774 456.841 547.302 457.144 548.745 461.117C549.521 463.429 548.387 465.827 548.848 468.211C549.79 477.359 557.784 484.567 566.831 484.481H566.921C584.231 484.435 591.539 462.28 577.928 451.665Z" fill="#7741FF"/>
</svg>
