<svg width="138" height="54" viewBox="0 0 138 54" fill="none" xmlns="http://www.w3.org/2000/svg">
<rect width="138" height="54" rx="16" fill="#4F4A8A"/>
<path d="M48.8931 31.9297V33.4727H32.8775V31.9297H36.7056V27.3594C35.2701 26.5684 34.4009 25.3086 34.4009 23.7461C34.4009 20.9922 37.0962 19.1758 40.8462 19.1758C44.6158 19.1758 47.3111 20.9922 47.3111 23.7461C47.3111 25.2891 46.4712 26.5293 45.065 27.3203V31.9297H48.8931ZM40.8462 20.6602C38.0923 20.6602 36.1978 21.8516 36.1978 23.7461C36.1978 25.6211 38.0923 26.8516 40.8462 26.8516C43.5806 26.8516 45.5142 25.6211 45.5142 23.7461C45.5142 21.8516 43.5806 20.6602 40.8462 20.6602ZM38.5416 31.9297H43.19V28.0234C42.4771 28.209 41.6861 28.2969 40.8462 28.2969C40.0259 28.2969 39.2447 28.209 38.5416 28.043V31.9297ZM66.1731 20.7188V22.2422H63.6927V24.4688H66.1731V26.0312H63.6927V28.5312H61.8372V18.1602H63.6927V20.7188H66.1731ZM63.6927 29.3125V35.6602H61.8372V30.8164H52.1302V29.3125H63.6927ZM54.8645 19.1758C57.5403 19.1758 59.513 20.8945 59.5325 23.3555C59.513 25.8164 57.5403 27.5352 54.8645 27.5352C52.1887 27.5352 50.1966 25.8164 50.2161 23.3555C50.1966 20.8945 52.1887 19.1758 54.8645 19.1758ZM54.8645 20.7578C53.2239 20.7578 52.013 21.793 52.0325 23.3555C52.013 24.9375 53.2239 25.9727 54.8645 25.9531C56.5052 25.9727 57.7161 24.9375 57.7161 23.3555C57.7161 21.793 56.5052 20.7578 54.8645 20.7578ZM69 29.1953C68.2383 29.1953 67.5938 28.5703 67.6133 27.8086C67.5938 27.0469 68.2383 26.4219 69 26.4219C69.7422 26.4219 70.3867 27.0469 70.3867 27.8086C70.3867 28.5703 69.7422 29.1953 69 29.1953ZM76.2214 19.2344C78.5456 19.2344 80.2448 20.9727 80.2448 23.4336C80.2448 25.8945 78.5456 27.5742 76.2214 27.5742C73.8777 27.5742 72.198 25.8945 72.2175 23.4336C72.198 20.9727 73.8777 19.2344 76.2214 19.2344ZM76.2214 20.8359C74.8542 20.8359 73.8777 21.8711 73.8777 23.4336C73.8777 24.957 74.8542 26.0312 76.2214 26.0117C77.5691 26.0312 78.5456 24.957 78.5652 23.4336C78.5456 21.8711 77.5691 20.8359 76.2214 20.8359ZM86.9831 18.1797V28.6094H85.2253V24.0977H83.1941V28.4922H81.4558V18.4922H83.1941V22.5938H85.2253V18.1797H86.9831ZM86.9831 29.5078V35.6602H85.1472V30.9922H75.0886V29.5078H86.9831ZM95.2983 21.3242C95.2983 23.8438 96.8803 26.2461 99.478 27.2617L98.4623 28.707C96.5483 27.9355 95.142 26.4023 94.3998 24.4883C93.6479 26.5391 92.1537 28.1602 90.1225 28.9805L89.1264 27.4961C91.8217 26.5 93.4428 24 93.4623 21.3242V19.1562H95.2983V21.3242ZM103.716 18.1797V31.207H101.861V25.6992H98.4623V24.1953H101.861V22.1641H98.4623V20.6602H101.861V18.1797H103.716ZM104.107 33.7852V35.2891H92.2905V29.8984H94.1655V33.7852H104.107Z" fill="#212135"/>
</svg>
