<svg width="155" height="54" viewBox="0 0 155 54" fill="none" xmlns="http://www.w3.org/2000/svg">
<rect width="155" height="54" rx="16" fill="#7F76E5"/>
<path d="M47.591 18.1797V31.4414H45.7355V29.7617H42.2199V28.4531H45.7355V18.1797H47.591ZM48.0207 33.7852V35.2891H35.384V30.1523H37.2199V33.7852H48.0207ZM32.9621 26.168C36.2043 26.1484 40.5598 26.1094 44.2902 25.6406L44.4074 26.9688C42.9133 27.2129 41.341 27.3789 39.798 27.4766V30.8945H37.9426V27.5742C36.2434 27.6523 34.6125 27.6621 33.1965 27.6523L32.9621 26.168ZM38.6848 18.8438C41.2434 18.8438 43.0207 20.0742 43.0207 21.9297C43.0207 23.7852 41.2434 24.9766 38.6848 24.9766C36.0871 24.9766 34.3293 23.7852 34.3293 21.9297C34.3293 20.0742 36.0871 18.8438 38.6848 18.8438ZM38.6848 20.2305C37.1223 20.2109 36.0676 20.875 36.0871 21.9297C36.0676 22.9648 37.1223 23.6094 38.6848 23.6094C40.1887 23.6094 41.2434 22.9648 41.2629 21.9297C41.2434 20.875 40.1887 20.2109 38.6848 20.2305ZM64.0898 18.9414V20.3281C64.0898 21.6855 64.0898 23.2188 63.6991 25.1914H66.0429V26.6953H50.1249V25.1914H61.8437C61.9902 24.4688 62.0878 23.8145 62.1562 23.1992L51.9023 23.6289L51.6679 22.1836L62.2343 21.8906C62.2538 21.373 62.2538 20.8945 62.2538 20.4258H52.1171V18.9414H64.0898ZM64.207 28.1602V32.3984H53.8359V33.9805H64.832V35.4453H51.9804V31.0117H62.371V29.5859H51.9413V28.1602H64.207ZM81.6823 18.1797V28.8633H79.8268V18.1797H81.6823ZM81.6823 29.7617V35.6602H79.8268V31.2852H69.8268V29.7617H81.6823ZM76.0963 19.1953V24.1953H69.9049V26.4414C72.9616 26.4316 75.2174 26.3242 77.8737 25.9336L78.108 27.4375C75.2565 27.8867 72.8541 27.9648 69.5534 27.9648H68.0885V22.75H74.2604V20.6992H68.0495V19.1953H76.0963ZM96.7891 29.1562C100.578 29.1562 102.961 30.3477 102.981 32.3984C102.961 34.4297 100.578 35.6406 96.7891 35.6211C93.0391 35.6406 90.6368 34.4297 90.6368 32.3984C90.6368 30.3477 93.0391 29.1562 96.7891 29.1562ZM96.7891 30.5625C94.1329 30.5625 92.4727 31.2461 92.4923 32.3984C92.4727 33.5312 94.1329 34.1953 96.7891 34.1953C99.4649 34.1953 101.125 33.5312 101.145 32.3984C101.125 31.2461 99.4649 30.5625 96.7891 30.5625ZM102.844 19.0195V20.4844C102.844 21.8906 102.844 23.3359 102.356 25.1328L100.539 24.9375C101.008 23.1504 101.008 21.8613 101.008 20.5039H90.7735V19.0195H102.844ZM104.836 26.207V27.7109H88.918V26.207H95.3048V22.9258H97.1212V26.207H104.836ZM121.96 28.043V29.5664H117.897V35.6602H116.022V29.5664H111.843V35.6602H109.929V29.5664H105.944V28.043H121.96ZM113.913 18.8242C117.604 18.8242 120.143 20.3281 120.143 22.6914C120.143 25.0156 117.604 26.5 113.913 26.4805C110.202 26.5 107.682 25.0156 107.682 22.6914C107.682 20.3281 110.202 18.8242 113.913 18.8242ZM113.913 20.3086C111.315 20.3281 109.577 21.2266 109.596 22.6914C109.577 24.1172 111.315 25.0156 113.913 25.0156C116.511 25.0156 118.249 24.1172 118.249 22.6914C118.249 21.2266 116.511 20.3281 113.913 20.3086Z" fill="#212135"/>
</svg>
