<svg width="194" height="54" viewBox="0 0 194 54" fill="none" xmlns="http://www.w3.org/2000/svg">
<rect width="194" height="54" rx="16" fill="#4F4A8A"/>
<path d="M47.6359 18.1602V27.1641H45.7999V18.1602H47.6359ZM47.6554 28.0039V32.3789H38.007V34H48.2413V35.4844H36.2101V30.9727H45.8195V29.4688H36.1515V28.0039H47.6554ZM39.5109 19.9766C39.4913 22.3203 41.1905 24.4492 43.8663 25.2891L42.9484 26.7344C40.9073 26.0703 39.3741 24.6836 38.5929 22.9062C37.7921 24.8203 36.2296 26.3438 34.1398 27.0664L33.2023 25.6016C35.9366 24.6836 37.6163 22.3984 37.6163 19.9766V18.6289H39.5109V19.9766ZM56.6346 22.6133C56.6151 25.8164 58.5487 29.0195 61.2635 30.2305L60.1502 31.6953C58.1385 30.7383 56.5467 28.7754 55.7362 26.3828C54.9159 28.9414 53.3045 31.0605 51.2049 32.0859L50.0721 30.5234C52.826 29.293 54.7596 25.9531 54.7596 22.6133V19.625H56.6346V22.6133ZM64.701 18.1602V35.6992H62.8455V18.1602H64.701ZM81.024 18.1602V23.3359H83.563V24.8789H81.024V30.875H79.149V18.1602H81.024ZM76.2779 19.4883C76.2779 24.0781 73.1529 27.418 68.0357 28.9609L67.2545 27.4766C71.3462 26.2461 73.8951 23.9219 74.2662 21.0312H67.9966V19.4883H76.2779ZM81.7466 33.7852V35.2891H69.9107V29.5664H71.7857V33.7852H81.7466ZM96.9707 18.5312C100.818 18.5312 103.221 19.7812 103.221 21.8906C103.221 23.9609 100.818 25.1914 96.9707 25.1914C93.1426 25.1914 90.7207 23.9609 90.7207 21.8906C90.7207 19.7812 93.1426 18.5312 96.9707 18.5312ZM96.9707 19.9961C94.2754 19.9961 92.6152 20.6797 92.6348 21.8906C92.6152 23.0625 94.2754 23.7266 96.9707 23.7461C99.6465 23.7266 101.307 23.0625 101.307 21.8906C101.307 20.6797 99.6465 19.9961 96.9707 19.9961ZM103.006 29.6055V35.4453H90.916V29.6055H103.006ZM92.7519 31.0898V33.9414H101.209V31.0898H92.7519ZM104.959 26.5391V28.043H89.0019V26.5391H104.959ZM112.278 20.7773C112.278 23.2383 113.86 25.4258 116.516 26.2852L115.501 27.7305C113.577 27.0371 112.161 25.6895 111.399 23.9414C110.637 25.9434 109.114 27.4961 107.005 28.2578L106.009 26.7734C108.801 25.8164 110.423 23.4922 110.442 20.8555V19.1367H112.278V20.7773ZM120.657 18.1602V28.4922H118.801V23.2383H115.11V21.7148H118.801V18.1602H120.657ZM114.798 28.9805C118.469 28.9805 120.716 30.1914 120.716 32.3203C120.716 34.4297 118.469 35.6406 114.798 35.6211C111.126 35.6406 108.86 34.4297 108.88 32.3203C108.86 30.1914 111.126 28.9805 114.798 28.9805ZM114.798 30.4258C112.239 30.4258 110.716 31.1094 110.716 32.3203C110.716 33.4922 112.239 34.1562 114.798 34.1562C117.356 34.1562 118.88 33.4922 118.88 32.3203C118.88 31.1094 117.356 30.4258 114.798 30.4258ZM142.385 18.1797V31.1094H140.529V26.5586H136.701V28.1992H128.635V19.332H130.49V22.3008H134.865V19.332H136.701V21.2852H140.529V18.1797H142.385ZM142.776 33.7852V35.2891H130.959V29.8398H132.834V33.7852H142.776ZM130.49 26.6953H134.865V23.7266H130.49V26.6953ZM136.701 25.0547H140.529V22.8086H136.701V25.0547ZM158.63 18.1602V24.1562H161.13V25.6992H158.63V31.832H156.774V18.1602H158.63ZM159.255 33.7852V35.2891H147.321V30.9141H149.177V33.7852H159.255ZM144.743 28.4336C146.091 28.4336 147.663 28.4238 149.313 28.3555V27.1445C147.321 26.9297 146.052 25.9629 146.071 24.5273C146.052 22.8281 147.712 21.8125 150.231 21.832C152.731 21.8125 154.391 22.8281 154.391 24.5273C154.391 25.9531 153.141 26.9199 151.169 27.1445V28.2773C152.731 28.1895 154.313 28.0527 155.778 27.8281L155.934 29.1367C152.204 29.8398 147.985 29.8984 144.938 29.918L144.743 28.4336ZM155.29 19.7812V21.1484H145.192V19.7812H149.313V18.1016H151.169V19.7812H155.29ZM150.231 23.1016C148.727 23.1016 147.829 23.6289 147.829 24.5273C147.829 25.3867 148.727 25.9141 150.231 25.9141C151.716 25.9141 152.614 25.3867 152.614 24.5273C152.614 23.6289 151.716 23.1016 150.231 23.1016Z" fill="#212135"/>
</svg>
