<svg width="172" height="54" viewBox="0 0 172 54" fill="none" xmlns="http://www.w3.org/2000/svg">
<rect width="172" height="54" rx="16" fill="#4F4A8A"/>
<path d="M39.1014 23.3164C39.1014 26.0898 40.9178 29.1758 43.5741 30.4258L42.5194 31.8711C40.5565 30.9238 39.0037 28.9512 38.2225 26.6562C37.412 29.166 35.7713 31.3242 33.7694 32.3203L32.6756 30.8555C35.3319 29.5859 37.2655 26.2852 37.2655 23.3164V21.4609H33.3202V19.918H42.91V21.4609H39.1014V23.3164ZM46.6405 18.1602V25.0938H49.453V26.6562H46.6405V35.6602H44.785V18.1602H46.6405ZM66.0494 26.6758V28.1602H50.0728V26.6758H57.1627V24.8203H52.065V18.9609H64.0767V20.4258H53.9009V23.3359H64.1939V24.8203H58.9595V26.6758H66.0494ZM58.0416 29.293C61.8111 29.293 64.0767 30.4453 64.0767 32.4766C64.0767 34.5078 61.8111 35.6406 58.0416 35.6602C54.2525 35.6406 51.9673 34.5078 51.9673 32.4766C51.9673 30.4453 54.2525 29.293 58.0416 29.293ZM58.0416 30.7383C55.3658 30.7383 53.8423 31.3633 53.8423 32.4766C53.8423 33.5898 55.3658 34.2148 58.0416 34.1953C60.6783 34.2148 62.2213 33.5898 62.2213 32.4766C62.2213 31.3633 60.6783 30.7383 58.0416 30.7383ZM80.6484 19.8984V31.2656H72.4648V19.8984H80.6484ZM74.2812 21.3633V29.7617H78.8125V21.3633H74.2812ZM85.4336 18.1602V25.0156H88.2461V26.5781H85.4336V35.6602H83.5781V18.1602H85.4336ZM103.378 18.1797V30.8945H101.522V18.1797H103.378ZM103.905 33.7852V35.2891H91.9323V29.6055H93.8073V33.7852H103.905ZM93.8855 19.3516C96.5222 19.3516 98.5339 21.1484 98.5339 23.6875C98.5339 26.2656 96.5222 28.043 93.8855 28.043C91.2487 28.043 89.2175 26.2656 89.2175 23.6875C89.2175 21.1484 91.2487 19.3516 93.8855 19.3516ZM93.8855 20.9727C92.2448 20.9727 91.0339 22.0859 91.0339 23.6875C91.0339 25.3281 92.2448 26.4219 93.8855 26.4219C95.487 26.4219 96.7175 25.3281 96.7175 23.6875C96.7175 22.0859 95.487 20.9727 93.8855 20.9727ZM120.111 26.4609V27.9844H107.923V19.7227H119.955V21.2461H109.759V26.4609H120.111ZM121.947 31.8125V33.3555H105.931V31.8125H121.947ZM137.918 18.1797V27.6914H136.16V23.6094H134.11V27.5742H132.391V18.4922H134.11V22.0664H136.16V18.1797H137.918ZM130.574 19.3711V26.832H123.738V19.3711H130.574ZM125.477 20.8164V25.3477H128.856V20.8164H125.477ZM128.074 28.4531V30.3672H136.102V28.4531H137.918V35.4453H126.238V28.4531H128.074ZM128.074 33.9414H136.102V31.8711H128.074V33.9414Z" fill="#212135"/>
</svg>
