<svg width="74" height="16" viewBox="0 0 74 16" fill="none" xmlns="http://www.w3.org/2000/svg">
<path d="M2.3414 15.1899C1.83427 15.1899 1.46801 15.1125 1.24262 14.9575C1.03131 14.8025 0.897488 14.6053 0.841141 14.3658C0.784793 14.1123 0.756619 13.8446 0.756619 13.5629V2.00454C0.756619 1.73689 0.784793 1.49036 0.841141 1.26497C0.897488 1.02549 1.03836 0.828277 1.26375 0.673321C1.48914 0.518365 1.86244 0.440887 2.38366 0.440887C2.73584 0.440887 3.00349 0.462017 3.18662 0.504277C3.36975 0.546538 3.50358 0.60993 3.5881 0.694451C3.67262 0.764886 3.76418 0.849408 3.86279 0.948017L8.61714 7.37167H8.30018L13.0757 0.948017C13.1884 0.807147 13.3011 0.701495 13.4137 0.631061C13.5264 0.560625 13.6673 0.51132 13.8364 0.483147C14.0195 0.454973 14.2731 0.440887 14.5971 0.440887C15.1042 0.440887 15.4704 0.518365 15.6958 0.673321C15.9212 0.828277 16.0621 1.03254 16.1184 1.2861C16.1748 1.52558 16.203 1.77915 16.203 2.0468V13.6051C16.203 13.8728 16.1748 14.1264 16.1184 14.3658C16.0621 14.6053 15.9212 14.8025 15.6958 14.9575C15.4704 15.1125 15.0971 15.1899 14.5759 15.1899C14.0688 15.1899 13.7025 15.1125 13.4771 14.9575C13.2517 14.8025 13.1109 14.5983 13.0545 14.3447C12.9982 14.0911 12.97 13.8305 12.97 13.5629V6.01932L9.82158 10.4778C9.76523 10.5483 9.68775 10.6469 9.58914 10.7737C9.49053 10.8864 9.34966 10.985 9.16653 11.0695C8.99749 11.154 8.76505 11.1963 8.46923 11.1963C8.15931 11.1963 7.91279 11.154 7.72966 11.0695C7.56062 10.985 7.42679 10.8864 7.32818 10.7737C7.22958 10.661 7.14505 10.5624 7.07462 10.4778L3.94731 6.04045V13.6051C3.94731 13.8728 3.91914 14.1264 3.86279 14.3658C3.80644 14.6053 3.66558 14.8025 3.44018 14.9575C3.22888 15.1125 2.86262 15.1899 2.3414 15.1899ZM24.8338 15.4012C23.8195 15.4012 22.8616 15.2111 21.96 14.8307C21.0725 14.4363 20.2907 13.901 19.6145 13.2248C18.9525 12.5345 18.4242 11.7386 18.0298 10.8371C17.6494 9.93549 17.4592 8.9635 17.4592 7.92106C17.4592 6.86454 17.6424 5.87845 18.0086 4.9628C18.389 4.03306 18.9031 3.21602 19.5511 2.51167C20.2132 1.80732 20.981 1.25793 21.8544 0.863495C22.7278 0.46906 23.6645 0.271843 24.6647 0.271843C25.679 0.271843 26.6298 0.46906 27.5173 0.863495C28.4189 1.24384 29.2007 1.77915 29.8628 2.46941C30.5249 3.15967 31.0461 3.96263 31.4265 4.87828C31.8209 5.79393 32.0181 6.78706 32.0181 7.85767C32.0181 8.88602 31.8279 9.85802 31.4476 10.7737C31.0813 11.6752 30.5671 12.4782 29.9051 13.1825C29.243 13.8728 28.4752 14.4151 27.6018 14.8096C26.7425 15.204 25.8198 15.4012 24.8338 15.4012ZM24.7281 12.1894C25.2916 12.1894 25.8198 12.0767 26.3129 11.8513C26.8059 11.6259 27.2356 11.3231 27.6018 10.9427C27.9822 10.5483 28.271 10.0905 28.4682 9.56923C28.6795 9.03393 28.7851 8.45636 28.7851 7.83654C28.7851 7.24489 28.6795 6.68845 28.4682 6.16723C28.2569 5.63193 27.9611 5.16706 27.5807 4.77263C27.2145 4.3641 26.7848 4.04715 26.2918 3.82176C25.8128 3.59636 25.2916 3.48367 24.7281 3.48367C24.1787 3.48367 23.6575 3.59636 23.1645 3.82176C22.6855 4.04715 22.2558 4.3641 21.8755 4.77263C21.5092 5.16706 21.2134 5.63193 20.988 6.16723C20.7767 6.68845 20.6711 7.25193 20.6711 7.85767C20.6711 8.44932 20.7767 9.0128 20.988 9.5481C21.2134 10.0693 21.5092 10.5271 21.8755 10.9216C22.2558 11.316 22.6855 11.6259 23.1645 11.8513C23.6434 12.0767 24.1646 12.1894 24.7281 12.1894ZM45.8755 12.9501C46.0446 13.3023 46.1362 13.6051 46.1502 13.8587C46.1643 14.0982 46.0868 14.3165 45.9178 14.5138C45.7628 14.6969 45.5022 14.88 45.136 15.0631C44.5725 15.3308 44.1358 15.4083 43.8259 15.2956C43.516 15.197 43.2272 14.8659 42.9595 14.3025L38.818 5.63897L34.6975 14.3025C34.4158 14.8518 34.12 15.1758 33.8101 15.2745C33.5142 15.3871 33.0846 15.3097 32.5211 15.042C32.1548 14.873 31.8872 14.6969 31.7182 14.5138C31.5632 14.3165 31.4928 14.0911 31.5068 13.8376C31.5209 13.5699 31.6195 13.26 31.8027 12.9078L37.36 1.34949C37.5008 1.06776 37.7051 0.842365 37.9728 0.673321C38.2545 0.504277 38.5433 0.419755 38.8391 0.419755C39.0504 0.419755 39.2476 0.462016 39.4308 0.546539C39.6139 0.616973 39.7759 0.722625 39.9168 0.863495C40.0717 1.00436 40.1985 1.17341 40.2971 1.37063L45.8755 12.9501ZM35.2681 11.7457L36.5782 9.01984H41.0789L42.389 11.7457H35.2681ZM48.7278 15.1899C48.2207 15.1899 47.8544 15.1125 47.629 14.9575C47.4036 14.7885 47.2628 14.5771 47.2064 14.3236C47.1642 14.0559 47.143 13.7812 47.143 13.4995V2.0468C47.143 1.76506 47.1642 1.50445 47.2064 1.26497C47.2628 1.01141 47.4036 0.807147 47.629 0.652191C47.8544 0.483147 48.2277 0.398625 48.749 0.398625H54.0104C54.8416 0.398625 55.5811 0.595842 56.2291 0.990277C56.8771 1.38471 57.3913 1.91297 57.7716 2.57506C58.152 3.23715 58.3351 3.95558 58.321 4.73036C58.3351 5.04028 58.307 5.34315 58.2365 5.63897C58.1661 5.9348 58.0604 6.22358 57.9196 6.50532C57.7928 6.77297 57.6308 7.01949 57.4336 7.24489C57.7294 7.52663 57.9759 7.85063 58.1731 8.21689C58.3703 8.56906 58.5183 8.94236 58.6169 9.3368C58.7296 9.73123 58.7859 10.1327 58.7859 10.5412C58.7718 11.1892 58.645 11.802 58.4056 12.3796C58.1802 12.9431 57.8562 13.4361 57.4336 13.8587C57.011 14.2672 56.525 14.5912 55.9756 14.8307C55.4262 15.0702 54.8416 15.1899 54.2217 15.1899H48.7278ZM50.3549 11.9992H54.0104C54.2499 11.9992 54.4894 11.957 54.7289 11.8725C54.9824 11.7738 55.1867 11.6048 55.3416 11.3653C55.5107 11.1118 55.5952 10.7596 55.5952 10.3088C55.5952 10.013 55.56 9.76645 55.4896 9.56923C55.4191 9.37202 55.3205 9.2241 55.1937 9.12549C55.067 9.0128 54.9261 8.93532 54.7711 8.89306C54.6162 8.8508 54.4542 8.82263 54.2851 8.80854C54.1161 8.79445 53.9541 8.78741 53.7991 8.78741H53.1863C52.7074 8.78741 52.3693 8.6888 52.1721 8.49158C51.9749 8.28028 51.8763 7.92106 51.8763 7.41393C51.8763 6.92089 51.9819 6.57576 52.1932 6.37854C52.4186 6.18132 52.7708 6.08271 53.2497 6.08271H53.8625C54.0034 6.08271 54.1513 6.07567 54.3063 6.06158C54.4612 6.04749 54.595 6.00523 54.7077 5.9348C54.8345 5.86436 54.9331 5.75167 55.0036 5.59671C55.0881 5.42767 55.1303 5.20228 55.1303 4.92054C55.1303 4.44158 55.0106 4.10349 54.7711 3.90628C54.5316 3.69497 54.109 3.58932 53.5033 3.58932H50.3549V11.9992ZM73.4648 12.9501C73.6338 13.3023 73.7254 13.6051 73.7395 13.8587C73.7536 14.0982 73.6761 14.3165 73.5071 14.5138C73.3521 14.6969 73.0915 14.88 72.7252 15.0631C72.1617 15.3308 71.7251 15.4083 71.4151 15.2956C71.1052 15.197 70.8164 14.8659 70.5488 14.3025L66.4072 5.63897L62.2868 14.3025C62.0051 14.8518 61.7092 15.1758 61.3993 15.2745C61.1035 15.3871 60.6738 15.3097 60.1104 15.042C59.7441 14.873 59.4764 14.6969 59.3074 14.5138C59.1524 14.3165 59.082 14.0911 59.0961 13.8376C59.1102 13.5699 59.2088 13.26 59.3919 12.9078L64.9492 1.34949C65.0901 1.06776 65.2944 0.842365 65.562 0.673321C65.8437 0.504277 66.1325 0.419755 66.4284 0.419755C66.6397 0.419755 66.8369 0.462016 67.02 0.546539C67.2031 0.616973 67.3651 0.722625 67.506 0.863495C67.661 1.00436 67.7877 1.17341 67.8864 1.37063L73.4648 12.9501ZM62.8573 11.7457L64.1674 9.01984H68.6682L69.9783 11.7457H62.8573Z" fill="#0B0C0C"/>
</svg>
