<svg width="21" height="20" viewBox="0 0 21 20" fill="none" xmlns="http://www.w3.org/2000/svg">
<g id="pause">
<g id="Union">
<path d="M6.61947 5C6.15923 5 5.78613 5.3731 5.78613 5.83333V14.1667C5.78613 14.6269 6.15923 15 6.61947 15H8.28613C8.74637 15 9.11947 14.6269 9.11947 14.1667V5.83333C9.11947 5.3731 8.74637 5 8.28613 5H6.61947Z" fill="#545456"/>
<path d="M13.2861 5C12.8259 5 12.4528 5.3731 12.4528 5.83333V14.1667C12.4528 14.6269 12.8259 15 13.2861 15H14.9528C15.413 15 15.7861 14.6269 15.7861 14.1667V5.83333C15.7861 5.3731 15.413 5 14.9528 5H13.2861Z" fill="#545456"/>
</g>
</g>
</svg>
