<svg width="24" height="24" viewBox="0 0 24 24" fill="none" xmlns="http://www.w3.org/2000/svg">
<path fill-rule="evenodd" clip-rule="evenodd" d="M6.00098 4C4.89641 4 4.00098 4.89543 4.00098 6V18C4.00098 19.1046 4.89641 20 6.00098 20H18.001C19.1055 20 20.001 19.1046 20.001 18V6C20.001 4.89543 19.1055 4 18.001 4H6.00098ZM16.7081 9.70711C17.0986 9.31658 17.0986 8.68342 16.7081 8.29289C16.3176 7.90237 15.6844 7.90237 15.2939 8.29289L10.001 13.5858L8.70808 12.2929C8.31756 11.9024 7.68439 11.9024 7.29387 12.2929C6.90335 12.6834 6.90335 13.3166 7.29387 13.7071L9.29387 15.7071C9.68439 16.0976 10.3176 16.0976 10.7081 15.7071L16.7081 9.70711Z" fill="#0972FD"/>
</svg>
