<svg width="16" height="17" viewBox="0 0 16 17" fill="none" xmlns="http://www.w3.org/2000/svg">
<g id="Group 49">
<path id="Vector 1856 (Stroke)" fill-rule="evenodd" clip-rule="evenodd" d="M8 0.25C8.41421 0.25 8.75 0.585786 8.75 1V12C8.75 12.4142 8.41421 12.75 8 12.75C7.58579 12.75 7.25 12.4142 7.25 12V1C7.25 0.585786 7.58579 0.25 8 0.25Z" fill="black"/>
<path id="Vector 1859 (Stroke)" fill-rule="evenodd" clip-rule="evenodd" d="M3.46967 7.46967C3.76256 7.17678 4.23744 7.17678 4.53033 7.46967L8.53033 11.4697C8.82322 11.7626 8.82322 12.2374 8.53033 12.5303C8.23744 12.8232 7.76256 12.8232 7.46967 12.5303L3.46967 8.53033C3.17678 8.23744 3.17678 7.76256 3.46967 7.46967Z" fill="black"/>
<path id="Vector 1858 (Stroke)" fill-rule="evenodd" clip-rule="evenodd" d="M12.5303 7.46967C12.8232 7.76256 12.8232 8.23744 12.5303 8.53033L8.53033 12.5303C8.23744 12.8232 7.76256 12.8232 7.46967 12.5303C7.17678 12.2374 7.17678 11.7626 7.46967 11.4697L11.4697 7.46967C11.7626 7.17678 12.2374 7.17678 12.5303 7.46967Z" fill="black"/>
<path id="Vector 1857 (Stroke)" fill-rule="evenodd" clip-rule="evenodd" d="M1 12.25C1.41421 12.25 1.75 12.5858 1.75 13V15C1.75 15.1381 1.86193 15.25 2 15.25H14C14.1381 15.25 14.25 15.1381 14.25 15V13C14.25 12.5858 14.5858 12.25 15 12.25C15.4142 12.25 15.75 12.5858 15.75 13V15C15.75 15.9665 14.9665 16.75 14 16.75H2C1.0335 16.75 0.25 15.9665 0.25 15V13C0.25 12.5858 0.585786 12.25 1 12.25Z" fill="black"/>
</g>
</svg>
