<svg width="20" height="20" viewBox="0 0 20 20" fill="none" xmlns="http://www.w3.org/2000/svg">
<path fill-rule="evenodd" clip-rule="evenodd" d="M10 2.70898C10.3452 2.70898 10.625 2.98881 10.625 3.33398V12.5007C10.625 12.8458 10.3452 13.1257 10 13.1257C9.65482 13.1257 9.375 12.8458 9.375 12.5007V3.33398C9.375 2.98881 9.65482 2.70898 10 2.70898Z" fill="white"/>
<path fill-rule="evenodd" clip-rule="evenodd" d="M6.22505 8.72505C6.46913 8.48097 6.86486 8.48097 7.10893 8.72505L10.4423 12.0584C10.6863 12.3025 10.6863 12.6982 10.4423 12.9423C10.1982 13.1863 9.80246 13.1863 9.55838 12.9423L6.22505 9.60893C5.98097 9.36486 5.98097 8.96913 6.22505 8.72505Z" fill="white"/>
<path fill-rule="evenodd" clip-rule="evenodd" d="M13.7753 8.72505C14.0194 8.96913 14.0194 9.36486 13.7753 9.60893L10.4419 12.9423C10.1979 13.1863 9.80214 13.1863 9.55806 12.9423C9.31398 12.6982 9.31398 12.3025 9.55806 12.0584L12.8914 8.72505C13.1355 8.48097 13.5312 8.48097 13.7753 8.72505Z" fill="white"/>
<path fill-rule="evenodd" clip-rule="evenodd" d="M4.16699 12.709C4.51217 12.709 4.79199 12.9888 4.79199 13.334V15.0007C4.79199 15.1157 4.88527 15.209 5.00033 15.209H15.0003C15.1154 15.209 15.2087 15.1157 15.2087 15.0007V13.334C15.2087 12.9888 15.4885 12.709 15.8337 12.709C16.1788 12.709 16.4587 12.9888 16.4587 13.334V15.0007C16.4587 15.8061 15.8057 16.459 15.0003 16.459H5.00033C4.19491 16.459 3.54199 15.8061 3.54199 15.0007V13.334C3.54199 12.9888 3.82181 12.709 4.16699 12.709Z" fill="white"/>
</svg>
