<svg width="17" height="18" viewBox="0 0 17 18" fill="none" xmlns="http://www.w3.org/2000/svg">
<g id="Group 50">
<path id="Vector 1856 (Stroke)" fill-rule="evenodd" clip-rule="evenodd" d="M5.25 9C5.25 8.58579 5.58579 8.25 6 8.25L16 8.25C16.4142 8.25 16.75 8.58579 16.75 9C16.75 9.41421 16.4142 9.75 16 9.75L6 9.75C5.58579 9.75 5.25 9.41421 5.25 9Z" fill="black"/>
<path id="Vector 1859 (Stroke)" fill-rule="evenodd" clip-rule="evenodd" d="M11.4697 13.5303C11.1768 13.2374 11.1768 12.7626 11.4697 12.4697L15.4697 8.46967C15.7626 8.17678 16.2374 8.17678 16.5303 8.46967C16.8232 8.76256 16.8232 9.23744 16.5303 9.53033L12.5303 13.5303C12.2374 13.8232 11.7626 13.8232 11.4697 13.5303Z" fill="black"/>
<path id="Vector 1858 (Stroke)" fill-rule="evenodd" clip-rule="evenodd" d="M11.4697 4.46967C11.7626 4.17678 12.2374 4.17678 12.5303 4.46967L16.5303 8.46967C16.8232 8.76256 16.8232 9.23744 16.5303 9.53033C16.2374 9.82322 15.7626 9.82322 15.4697 9.53033L11.4697 5.53033C11.1768 5.23744 11.1768 4.76256 11.4697 4.46967Z" fill="black"/>
<path id="Vector 1857 (Stroke)" fill-rule="evenodd" clip-rule="evenodd" d="M8.75 17C8.75 17.4142 8.41421 17.75 8 17.75L2 17.75C1.0335 17.75 0.249999 16.9665 0.249999 16L0.25 2C0.25 1.0335 1.0335 0.250002 2 0.250001L8 0.25C8.41421 0.25 8.75 0.585786 8.75 1C8.75 1.41421 8.41421 1.75 8 1.75L2 1.75C1.86193 1.75 1.75 1.86193 1.75 2L1.75 16C1.75 16.1381 1.86193 16.25 2 16.25L8 16.25C8.41421 16.25 8.75 16.5858 8.75 17Z" fill="black"/>
</g>
</svg>
