<svg width="70" height="70" viewBox="0 0 70 70" fill="none" xmlns="http://www.w3.org/2000/svg">
<g id="download file icon">
<path id="Subtract" d="M45 8.33398L58.333 21.0957V13.2959C58.3331 13.3083 58.334 13.3206 58.334 13.333V59.167C58.3339 61.9282 56.0952 64.1668 53.334 64.167H16.667C13.9056 64.167 11.6671 61.9283 11.667 59.167V13.333C11.6673 10.5718 13.9057 8.33398 16.667 8.33398H45Z" fill="#B69EF8"/>
<path id="Subtract_2" d="M45 5.83398L58.333 19.167V59.167C58.3329 61.9283 56.0944 64.167 53.333 64.167H20.833C18.0716 64.167 15.8331 61.9283 15.833 59.167V10.833C15.8333 8.07181 18.0717 5.83398 20.833 5.83398H45Z" fill="#D3C6FA"/>
<path id="Subtract_3" d="M45 5.8335L58.3333 19.1668H49.1667C46.8655 19.1668 45 17.3013 45 15.0002V5.8335Z" fill="#B69EF8"/>
<path id="Vector 1849" d="M25.833 26.6665H49.1663" stroke="#B69EF8" stroke-width="4" stroke-linecap="round"/>
<path id="Vector 1850" d="M25.833 36.6665H49.1663" stroke="#B69EF8" stroke-width="4" stroke-linecap="round"/>
<path id="Vector 1851" d="M25.833 46.6665H49.1663" stroke="#B69EF8" stroke-width="4" stroke-linecap="round"/>
</g>
</svg>
