<svg width="16" height="16" viewBox="0 0 16 16" fill="none" xmlns="http://www.w3.org/2000/svg">
<g id="livemode">
<path id="Vector" d="M6.22715 4.07861C6.58763 3.02363 8.04523 2.99168 8.47262 3.98276L8.50879 4.07921L8.99526 5.50192C9.10675 5.8282 9.28691 6.12678 9.52358 6.37751C9.76026 6.62824 10.048 6.8253 10.3673 6.95538L10.4981 7.00421L11.9207 7.49011C12.9756 7.85061 13.0076 9.30828 12.0172 9.7357L11.9207 9.77187L10.4981 10.2584C10.1717 10.3698 9.87302 10.5499 9.6222 10.7866C9.37137 11.0233 9.17423 11.3111 9.04409 11.6304L8.99526 11.7607L8.5094 13.184C8.14891 14.239 6.69131 14.2709 6.26452 13.2804L6.22715 13.184L5.74128 11.7613C5.62987 11.4349 5.44974 11.1362 5.21306 10.8853C4.97638 10.6345 4.68865 10.4374 4.36928 10.3072L4.23907 10.2584L2.81644 9.77248C1.76091 9.41197 1.72896 7.9543 2.71999 7.52748L2.81644 7.49011L4.23907 7.00421C4.56533 6.89272 4.86389 6.71255 5.11461 6.47586C5.36533 6.23917 5.56237 5.95146 5.69245 5.63214L5.74128 5.50192L6.22715 4.07861ZM12.1908 2C12.3035 2 12.4141 2.03164 12.5097 2.09131C12.6054 2.15099 12.6825 2.23632 12.7321 2.33759L12.761 2.40813L12.972 3.02664L13.5911 3.23764C13.7041 3.27604 13.8032 3.34713 13.8758 3.44189C13.9483 3.53666 13.9912 3.65084 13.9988 3.76996C14.0064 3.88909 13.9785 4.00779 13.9186 4.11103C13.8586 4.21427 13.7694 4.2974 13.6622 4.34989L13.5911 4.37882L12.9726 4.58982L12.7616 5.20894C12.7232 5.32193 12.652 5.42096 12.5572 5.49348C12.4624 5.566 12.3482 5.60874 12.2291 5.6163C12.11 5.62385 11.9913 5.59587 11.8881 5.53591C11.7849 5.47595 11.7019 5.3867 11.6494 5.27947L11.6205 5.20894L11.4095 4.59042L10.7904 4.37943C10.6774 4.34103 10.5783 4.26994 10.5058 4.17517C10.4332 4.08041 10.3904 3.96623 10.3828 3.8471C10.3752 3.72798 10.4031 3.60928 10.463 3.50603C10.5229 3.40279 10.6121 3.31966 10.7193 3.26718L10.7904 3.23824L11.4089 3.02725L11.6199 2.40813C11.6606 2.28902 11.7375 2.18562 11.8398 2.11243C11.9422 2.03924 12.0649 1.99992 12.1908 2Z" fill="#D3D4D6"/>
</g>
</svg>
