<svg width="21" height="20" viewBox="0 0 21 20" fill="none" xmlns="http://www.w3.org/2000/svg">
<g id="iconamoon:microphone-light">
<g id="Group">
<path id="Vector" d="M13 5C13 3.61929 11.8807 2.5 10.5 2.5C9.11929 2.5 8 3.61929 8 5V9.16667C8 10.5474 9.11929 11.6667 10.5 11.6667C11.8807 11.6667 13 10.5474 13 9.16667V5Z" stroke="white" stroke-width="1.5" stroke-linecap="round" stroke-linejoin="round"/>
<path id="Vector_2" d="M16.3327 9.16699C16.3327 9.93304 16.1818 10.6916 15.8886 11.3993C15.5955 12.107 15.1658 12.7501 14.6241 13.2918C14.0825 13.8335 13.4394 14.2631 12.7317 14.5563C12.0239 14.8494 11.2654 15.0003 10.4993 15.0003M10.4993 15.0003C9.73331 15.0003 8.97476 14.8494 8.26703 14.5563C7.5593 14.2631 6.91623 13.8335 6.37456 13.2918C5.83288 12.7501 5.4032 12.107 5.11005 11.3993C4.8169 10.6916 4.66602 9.93304 4.66602 9.16699M10.4993 15.0003V17.5003" stroke="white" stroke-width="1.5" stroke-linecap="round" stroke-linejoin="round"/>
</g>
</g>
</svg>
