<svg width="16" height="17" viewBox="0 0 16 17" fill="none" xmlns="http://www.w3.org/2000/svg">
<g id="iconamoon:microphone-light">
<g id="Group">
<path id="Vector" d="M10 4.5C10 3.39543 9.10457 2.5 8 2.5C6.89543 2.5 6 3.39543 6 4.5V7.83333C6 8.9379 6.89543 9.83333 8 9.83333C9.10457 9.83333 10 8.9379 10 7.83333V4.5Z" stroke="#676869" stroke-width="1.5" stroke-linecap="round" stroke-linejoin="round"/>
<path id="Vector_2" d="M12.6663 7.8335C12.6663 8.44633 12.5456 9.05317 12.3111 9.61935C12.0766 10.1855 11.7328 10.7 11.2995 11.1333C10.8662 11.5667 10.3517 11.9104 9.78553 12.1449C9.21934 12.3795 8.61251 12.5002 7.99967 12.5002M7.99967 12.5002C7.38684 12.5002 6.78 12.3795 6.21382 12.1449C5.64763 11.9104 5.13318 11.5667 4.69984 11.1333C4.2665 10.7 3.92276 10.1855 3.68824 9.61935C3.45371 9.05317 3.33301 8.44633 3.33301 7.8335M7.99967 12.5002V14.5002" stroke="#676869" stroke-width="1.5" stroke-linecap="round" stroke-linejoin="round"/>
</g>
</g>
</svg>
