<svg width="32" height="32" viewBox="0 0 32 32" fill="none" xmlns="http://www.w3.org/2000/svg">
<path fill-rule="evenodd" clip-rule="evenodd" d="M17.0001 7C17.0001 7.02422 16.9992 7.04824 16.9975 7.07204C20.3119 7.55506 22.8571 10.4089 22.8571 13.8571V19.5714L23.5613 21.6838C23.7772 22.3313 23.2952 23 22.6126 23H18.0001C18.0001 24.1046 17.1047 25 16.0001 25C14.8955 25 14.0001 24.1046 14.0001 23H9.38749C8.70494 23 8.22297 22.3313 8.43879 21.6838L9.14286 19.5714V13.8571C9.14286 10.4088 11.6882 7.55496 15.0026 7.07201C15.001 7.04823 15.0001 7.02421 15.0001 7C15.0001 6.44772 15.4478 6 16.0001 6C16.5524 6 17.0001 6.44772 17.0001 7ZM10.6429 19.5714C10.6429 19.7326 10.6169 19.8928 10.5659 20.0457L10.0812 21.5H21.9189L21.4341 20.0458C21.3831 19.8928 21.3571 19.7327 21.3571 19.5714V13.8571C21.3571 10.8985 18.9587 8.5 16 8.5C13.0413 8.5 10.6429 10.8985 10.6429 13.8571V19.5714Z" fill="#545456"/>
</svg>
