<svg width="16" height="17" viewBox="0 0 16 17" fill="none" xmlns="http://www.w3.org/2000/svg">
<g id="edit">
<g id="Union">
<path fill-rule="evenodd" clip-rule="evenodd" d="M10.2124 3.79625C10.9284 3.08029 12.0892 3.08029 12.8051 3.79625C13.5211 4.51221 13.5211 5.67301 12.8051 6.38897L5.24823 13.9459C5.151 14.0431 5.0261 14.1079 4.89062 14.1314L2.89499 14.4771C2.44072 14.5558 2.04562 14.1607 2.12431 13.7064L2.47003 11.7108C2.4935 11.5753 2.55828 11.4504 2.6555 11.3532L10.2124 3.79625ZM10.9195 4.50335C11.245 4.17792 11.7726 4.17792 12.098 4.50335C12.4235 4.82879 12.4235 5.35643 12.098 5.68187L11.1552 6.62468L9.97671 5.44616L10.9195 4.50335ZM10.4481 7.33178L9.2696 6.15327L3.43732 11.9856L3.19038 13.411L4.61583 13.1641L10.4481 7.33178Z" fill="#161618"/>
<path d="M8.66634 13.3332C8.3902 13.3332 8.16634 13.557 8.16634 13.8332C8.16634 14.1093 8.3902 14.3332 8.66634 14.3332H13.9997C14.2758 14.3332 14.4997 14.1093 14.4997 13.8332C14.4997 13.557 14.2758 13.3332 13.9997 13.3332H8.66634Z" fill="#161618"/>
</g>
</g>
</svg>
