<svg width="16" height="17" viewBox="0 0 16 17" fill="none" xmlns="http://www.w3.org/2000/svg">
<g id="ep:data-board">
<path id="Vector" d="M0.5 2.5H15.5V3.5H0.5V2.5Z" fill="#161618"/>
<path id="Vector_2" d="M3 3.5V11.5H13V3.5H3ZM2 2.5H14V12C14 12.1326 13.9473 12.2598 13.8536 12.3536C13.7598 12.4473 13.6326 12.5 13.5 12.5H2.5C2.36739 12.5 2.24021 12.4473 2.14645 12.3536C2.05268 12.2598 2 12.1326 2 12V2.5Z" fill="#161618"/>
<path id="Vector_3" d="M5.03388 15.5H3.87988L6.13988 11.585L7.00588 12.085L5.03388 15.5ZM12.1259 15.5H10.9719L8.99988 12.085L9.86588 11.585L12.1259 15.5Z" fill="#161618"/>
</g>
</svg>
