<svg width="24" height="24" viewBox="0 0 24 24" fill="none" xmlns="http://www.w3.org/2000/svg">
<path fill-rule="evenodd" clip-rule="evenodd" d="M4 3.93945L2.93934 5.00011L5.29405 7.35483C3.88652 8.48336 2.76832 9.95937 2.06883 11.6532C1.97706 11.8754 1.97706 12.125 2.06883 12.3473C3.68168 16.2527 7.52056 19.0003 11.9996 19.0003C13.4591 19.0003 14.8507 18.7086 16.1193 18.1801L19 21.0608L20.0607 20.0001L4 3.93945ZM14.9555 17.0163L12.8246 14.8854C12.5626 14.9601 12.286 15.0001 12 15.0001C10.3431 15.0001 9 13.657 9 12.0001C9 11.7141 9.04001 11.4375 9.11475 11.1755L6.36207 8.42285C5.1534 9.35676 4.1812 10.5843 3.55192 12.0002C4.99399 15.245 8.23696 17.5003 11.9996 17.5003C13.0329 17.5003 14.0271 17.3302 14.9555 17.0163Z" fill="black"/>
<path d="M11.1754 9.11486L14.8853 12.8247C14.96 12.5627 15 12.2861 15 12.0001C15 10.3433 13.6569 9.00011 12 9.00011C11.714 9.00011 11.4374 9.04013 11.1754 9.11486Z" fill="black"/>
<path d="M20.4473 12.0002C19.8181 13.4159 18.8461 14.6433 17.6377 15.5772L18.7057 16.6452C20.113 15.5167 21.231 14.0409 21.9304 12.3473C22.0222 12.125 22.0222 11.8754 21.9304 11.6532C20.3176 7.74769 16.4787 5.00011 11.9996 5.00011C10.5404 5.00011 9.14908 5.29174 7.88058 5.82003L9.04448 6.98394C9.97268 6.67012 10.9666 6.50011 11.9996 6.50011C15.7623 6.50011 19.0052 8.75542 20.4473 12.0002Z" fill="black"/>
</svg>
