<svg width="24" height="24" viewBox="0 0 24 24" fill="none" xmlns="http://www.w3.org/2000/svg">
<g id="show">
<g id="Union">
<path fill-rule="evenodd" clip-rule="evenodd" d="M16 12C16 14.2091 14.2091 16 12 16C9.79086 16 8 14.2091 8 12C8 9.79086 9.79086 8 12 8C14.2091 8 16 9.79086 16 12ZM14.5 12C14.5 13.3807 13.3807 14.5 12 14.5C10.6193 14.5 9.5 13.3807 9.5 12C9.5 10.6193 10.6193 9.5 12 9.5C13.3807 9.5 14.5 10.6193 14.5 12Z" fill="black"/>
<path fill-rule="evenodd" clip-rule="evenodd" d="M2.06883 12.3471C1.97706 12.1249 1.97706 11.8753 2.06883 11.6531C3.68168 7.74758 7.52056 5 11.9996 5C16.4787 5 20.3176 7.74758 21.9304 11.6531C22.0222 11.8753 22.0222 12.1249 21.9304 12.3471C20.3176 16.2526 16.4787 19.0002 11.9996 19.0002C7.52056 19.0002 3.68168 16.2526 2.06883 12.3471ZM11.9996 17.5002C8.23696 17.5002 4.99399 15.2449 3.55192 12.0001C4.99399 8.7553 8.23696 6.5 11.9996 6.5C15.7623 6.5 19.0052 8.7553 20.4473 12.0001C19.0052 15.2449 15.7623 17.5002 11.9996 17.5002Z" fill="black"/>
</g>
</g>
</svg>
