<svg width="70" height="70" viewBox="0 0 70 70" fill="none" xmlns="http://www.w3.org/2000/svg">
<path d="M45 5.83398L58.333 19.167V10.7969C58.3331 10.8091 58.334 10.8218 58.334 10.834V59.167C58.3339 61.9282 56.0952 64.1668 53.334 64.167H16.667C13.9056 64.167 11.6671 61.9283 11.667 59.167V10.833C11.6673 8.07181 13.9057 5.83398 16.667 5.83398H45Z" fill="#D3C6FA"/>
<path d="M45 5.8335L58.3333 19.1668H49.1667C46.8655 19.1668 45 17.3013 45 15.0002V5.8335Z" fill="#B69EF8"/>
<path d="M29.1663 26.3187C29.1663 23.2893 31.5915 20.8335 34.583 20.8335C37.5746 20.8335 39.9997 23.2893 39.9997 26.3187V37.2892C39.9997 40.3186 37.5746 42.7744 34.583 42.7744C31.5915 42.7744 29.1663 40.3186 29.1663 37.2892V26.3187Z" fill="#B69EF8"/>
<path d="M24.583 34.7575C25.2734 34.7575 25.833 35.3243 25.833 36.0234C25.833 40.917 29.7505 44.8841 34.583 44.8841C39.4155 44.8841 43.333 40.917 43.333 36.0234C43.333 35.3243 43.8927 34.7575 44.583 34.7575C45.2734 34.7575 45.833 35.3243 45.833 36.0234C45.833 41.9198 41.4093 46.77 35.7394 47.3563C35.7997 47.5047 35.833 47.6673 35.833 47.8377V52.901C35.833 53.6001 35.2734 54.1668 34.583 54.1668C33.8927 54.1668 33.333 53.6001 33.333 52.901V47.8377C33.333 47.6673 33.3663 47.5047 33.4266 47.3563C27.7567 46.77 23.333 41.9198 23.333 36.0234C23.333 35.3243 23.8927 34.7575 24.583 34.7575Z" fill="#B69EF8"/>
</svg>
