<svg width="71" height="70" viewBox="0 0 71 70" fill="none" xmlns="http://www.w3.org/2000/svg">
<g id="download file icon">
<path id="Subtract" d="M45.334 5.83301L58.667 19.167V10.7969C58.6671 10.8091 58.668 10.8218 58.668 10.834V59.167C58.6679 61.9282 56.4292 64.1668 53.668 64.167H17.001C14.2396 64.167 12.0011 61.9283 12.001 59.167V10.833C12.0012 8.07181 14.2397 5.83301 17.001 5.83301H45.334Z" fill="#E5E5E7"/>
<path id="Subtract_2" d="M45.334 5.8335L58.6673 19.1668H49.5007C47.1995 19.1668 45.334 17.3013 45.334 15.0002V5.8335Z" fill="#CBCCCF"/>
<g id="Union">
<path d="M29.5003 26.3187C29.5003 23.2893 31.9255 20.8335 34.917 20.8335C37.9085 20.8335 40.3337 23.2893 40.3337 26.3187V37.2892C40.3337 40.3186 37.9085 42.7744 34.917 42.7744C31.9255 42.7744 29.5003 40.3186 29.5003 37.2892V26.3187Z" fill="#CBCCCF"/>
<path d="M24.917 34.7575C25.6073 34.7575 26.167 35.3243 26.167 36.0234C26.167 40.917 30.0845 44.8841 34.917 44.8841C39.7495 44.8841 43.667 40.917 43.667 36.0234C43.667 35.3243 44.2266 34.7575 44.917 34.7575C45.6073 34.7575 46.167 35.3243 46.167 36.0234C46.167 41.9198 41.7433 46.77 36.0734 47.3563C36.1337 47.5047 36.167 47.6673 36.167 47.8377V52.901C36.167 53.6001 35.6073 54.1668 34.917 54.1668C34.2266 54.1668 33.667 53.6001 33.667 52.901V47.8377C33.667 47.6673 33.7003 47.5047 33.7606 47.3563C28.0906 46.77 23.667 41.9198 23.667 36.0234C23.667 35.3243 24.2266 34.7575 24.917 34.7575Z" fill="#CBCCCF"/>
</g>
</g>
</svg>
