<svg width="20" height="20" viewBox="0 0 20 20" fill="none" xmlns="http://www.w3.org/2000/svg">
<path id="Union" fill-rule="evenodd" clip-rule="evenodd" d="M9.42305 0.25C8.20385 0.25 7.1823 1.17234 7.05817 2.3852L7.04716 2.49282C6.9316 3.62196 5.71889 4.28357 4.7069 3.76958C3.61201 3.21348 2.27345 3.60359 1.64876 4.66085L1.12073 5.5545C0.48785 6.62563 0.822003 8.00588 1.87472 8.66892C2.85435 9.28594 2.85435 10.7141 1.87472 11.3311C0.822003 11.9941 0.48785 13.3744 1.12073 14.4455L1.64691 15.336C2.27284 16.3954 3.61663 16.7823 4.71007 16.218C5.71715 15.6983 6.93135 16.3562 7.04591 17.4837L7.05886 17.611C7.18229 18.8258 8.20515 19.75 9.42617 19.75H10.5751C11.7962 19.75 12.819 18.8258 12.9424 17.611L12.9554 17.4837C13.0699 16.3562 14.2842 15.6983 15.2913 16.218C16.3847 16.7823 17.7285 16.3954 18.3545 15.336L18.8806 14.4455C19.5135 13.3744 19.1793 11.9941 18.1266 11.3311C17.147 10.7141 17.147 9.28593 18.1266 8.66892C19.1793 8.00588 19.5135 6.62562 18.8806 5.55449L18.3526 4.66086C17.7279 3.6036 16.3893 3.21348 15.2944 3.76957C14.2824 4.28357 13.0697 3.62193 12.9541 2.49276L12.9431 2.38521C12.819 1.17235 11.7975 0.25 10.5783 0.25H9.42305ZM8.55038 2.53791C8.59618 2.09035 8.97315 1.75 9.42305 1.75H10.5783C11.0282 1.75 11.4051 2.09036 11.4509 2.53792L11.4619 2.64547C11.6847 4.82234 14.0227 6.09787 15.9737 5.10696C16.363 4.90921 16.839 5.04794 17.0612 5.42391L17.5892 6.31754C17.8091 6.68972 17.693 7.16931 17.3272 7.39969C15.4134 8.60504 15.4134 11.3949 17.3272 12.6003C17.693 12.8307 17.8091 13.3103 17.5892 13.6825L17.063 14.573C16.8416 14.9478 16.3661 15.0847 15.9792 14.885C14.0321 13.8802 11.6845 15.1522 11.4631 17.3321L11.4501 17.4594C11.4045 17.9084 11.0264 18.25 10.5751 18.25H9.42617C8.97486 18.25 8.5968 17.9084 8.55117 17.4594L8.53823 17.332C8.31673 15.1522 5.96924 13.8803 4.02218 14.8851C3.63528 15.0847 3.15981 14.9478 2.93833 14.573L2.41215 13.6824C2.19225 13.3103 2.30835 12.8307 2.67414 12.6003C4.58788 11.3949 4.58788 8.60506 2.67414 7.3997C2.30835 7.16931 2.19225 6.68972 2.41215 6.31755L2.94017 5.4239C3.16231 5.04794 3.6383 4.90922 4.02764 5.10696C5.97863 6.09787 8.31658 4.82237 8.53936 2.64553L8.55038 2.53791ZM7.75068 10C7.75068 8.75736 8.75803 7.75 10.0007 7.75C11.2433 7.75 12.2507 8.75736 12.2507 10C12.2507 11.2426 11.2433 12.25 10.0007 12.25C8.75803 12.25 7.75068 11.2426 7.75068 10ZM10.0007 6.25C7.92961 6.25 6.25068 7.92893 6.25068 10C6.25068 12.0711 7.92961 13.75 10.0007 13.75C12.0717 13.75 13.7507 12.0711 13.7507 10C13.7507 7.92893 12.0717 6.25 10.0007 6.25Z" fill="black"/>
</svg>
