<svg width="16" height="17" viewBox="0 0 16 17" fill="none" xmlns="http://www.w3.org/2000/svg">
<g id="share">
<path id="Union" d="M13.333 3.8335C13.333 4.93807 12.4376 5.8335 11.333 5.8335C10.7774 5.8335 10.2747 5.60694 9.91229 5.24118L5.2581 7.95613C5.3069 8.12912 5.33301 8.31163 5.33301 8.50024C5.33301 8.68883 5.30691 8.87132 5.25812 9.04429L9.91229 11.7592C10.2747 11.3935 10.7774 11.1669 11.333 11.1669C12.4376 11.1669 13.333 12.0623 13.333 13.1669C13.333 14.2715 12.4376 15.1669 11.333 15.1669C10.2284 15.1669 9.33301 14.2715 9.33301 13.1669C9.33301 12.9783 9.35912 12.7957 9.40794 12.6227L4.75382 9.90782C4.39139 10.2736 3.88866 10.5002 3.33301 10.5002C2.22844 10.5002 1.33301 9.60481 1.33301 8.50024C1.33301 7.39567 2.22844 6.50024 3.33301 6.50024C3.88863 6.50024 4.39134 6.72682 4.75377 7.09261L9.40794 4.37768C9.35912 4.20467 9.33301 4.02213 9.33301 3.8335C9.33301 2.72893 10.2284 1.8335 11.333 1.8335C12.4376 1.8335 13.333 2.72893 13.333 3.8335Z" fill="#161618"/>
</g>
</svg>
