<svg width="17" height="17" viewBox="0 0 17 17" fill="none" xmlns="http://www.w3.org/2000/svg">
<path d="M7.79102 6.37533H9.20768V4.95866H7.79102M8.49935 14.167C5.3756 14.167 2.83268 11.6241 2.83268 8.50033C2.83268 5.37658 5.3756 2.83366 8.49935 2.83366C11.6231 2.83366 14.166 5.37658 14.166 8.50033C14.166 11.6241 11.6231 14.167 8.49935 14.167ZM8.49935 1.41699C7.56915 1.41699 6.64806 1.60021 5.78867 1.95618C4.92928 2.31215 4.14842 2.8339 3.49068 3.49165C2.16229 4.82004 1.41602 6.62171 1.41602 8.50033C1.41602 10.3789 2.16229 12.1806 3.49068 13.509C4.14842 14.1667 4.92928 14.6885 5.78867 15.0445C6.64806 15.4004 7.56915 15.5837 8.49935 15.5837C10.378 15.5837 12.1796 14.8374 13.508 13.509C14.8364 12.1806 15.5827 10.3789 15.5827 8.50033C15.5827 7.57013 15.3995 6.64904 15.0435 5.78965C14.6875 4.93026 14.1658 4.1494 13.508 3.49165C12.8503 2.8339 12.0694 2.31215 11.21 1.95618C10.3506 1.60021 9.42955 1.41699 8.49935 1.41699ZM7.79102 12.042H9.20768V7.79199H7.79102V12.042Z" fill="#8F8F91"/>
</svg>
